<svg xmlns="http://www.w3.org/2000/svg" id="export" class="canvas" preserveAspectRatio="xMidYMid meet" style="" width="1279" height="198"><rect id="background" fill="#fff" pointer-events="all" width="1279" height="198"/><g id="origin" transform="translate(9, 9) scale(1)"><g id="clusters" class="clusters"/><g id="edge-paths" class="edge-paths"><defs><marker id="arrowhead-vee" viewBox="0 0 10 10" refX="9" refY="5" markerUnits="strokeWidth" markerWidth="8" markerHeight="6" orient="auto" style="fill: rgb(0, 0, 0);"><path d="M 0 0 L 10 5 L 0 10 L 4 5 z" style="stroke-width: 1;"/></marker><marker id="arrowhead-vee-select" viewBox="0 0 10 10" refX="9" refY="5" markerUnits="strokeWidth" markerWidth="8" markerHeight="6" orient="auto" style="fill: rgb(238, 0, 0);"><path d="M 0 0 L 10 5 L 0 10 L 4 5 z" style="stroke-width: 1;"/></marker></defs><path id="edge-input_4&#10;0" class="edge-path" d="M58.81689453125,40L60.483561197916664,40C62.150227864583336,40,65.48356119791667,40,70.785400390625,40C76.08723958333333,40,83.35758463541667,40,90.6279296875,40C97.89827473958333,40,105.16861979166667,40,110.470458984375,40C115.77229817708333,40,119.10563151041667,40,120.77229817708333,40L122.43896484375,40" style="stroke: rgb(0, 0, 0); stroke-width: 1px; fill: none; marker-end: url(&quot;#arrowhead-vee&quot;);"/><path id="edge-input_5&#10;1" class="edge-path" d="M58.783447265625,140L60.4556884765625,140C62.1279296875,140,65.472412109375,140,70.77982584635417,140C76.08723958333333,140,83.35758463541667,140,90.6279296875,140C97.89827473958333,140,105.16861979166667,140,110.470458984375,140C115.77229817708333,140,119.10563151041667,140,120.77229817708333,140L122.43896484375,140" style="stroke: rgb(0, 0, 0); stroke-width: 1px; fill: none; marker-end: url(&quot;#arrowhead-vee&quot;);"/><path id="edge-model_3/model_2/flatten_1/Reshape&#10;10" class="edge-path" d="M197.43896484375,40L201.07413736979166,40C204.70930989583334,40,211.97965494791666,40,219.25,40C226.52034505208334,40,233.79069010416666,40,237.42586263020834,40L241.06103515625,40" style="stroke: rgb(0, 0, 0); stroke-width: 1px; fill: none; marker-end: url(&quot;#arrowhead-vee&quot;);"/><path id="edge-model_3/model_2/dense_2/MatMul;model_3/model_2/dense_2/Relu;model_3/model_2/dense_2/BiasAdd&#10;11" class="edge-path" d="M335.49853515625,40L339.5829264322917,40C343.6673177083333,40,351.8361002604167,40,360.0048828125,40C368.1736653645833,40,376.3424479166667,40,380.4268391927083,40L384.51123046875,40" style="stroke: rgb(0, 0, 0); stroke-width: 1px; fill: none; marker-end: url(&quot;#arrowhead-vee&quot;);"/><path id="edge-model_3/model_2/dense_3/MatMul;model_3/model_2/dense_3/BiasAdd&#10;12" class="edge-path" d="M483.80810546875,40L487.8924967447917,40C491.9768880208333,40,500.1456705729167,40,514.0544860839844,46.416666666666664C527.963301595052,52.833333333333336,547.6121500651042,65.66666666666667,557.4365743001302,72.08333333333333L567.2609985351562,78.5" style="stroke: rgb(0, 0, 0); stroke-width: 1px; fill: none; marker-end: url(&quot;#arrowhead-vee&quot;);"/><path id="edge-model_3/model_2/flatten_1/Reshape_1&#10;13" class="edge-path" d="M197.43896484375,140L201.07413736979166,140C204.70930989583334,140,211.97965494791666,140,219.25,140C226.52034505208334,140,233.79069010416666,140,237.42586263020834,140L241.06103515625,140" style="stroke: rgb(0, 0, 0); stroke-width: 1px; fill: none; marker-end: url(&quot;#arrowhead-vee&quot;);"/><path id="edge-model_3/model_2/dense_2/MatMul_1;model_3/model_2/dense_2/Relu_1;model_3/model_2/dense_2/BiasAdd_1&#10;14" class="edge-path" d="M335.49853515625,140L339.5829264322917,140C343.6673177083333,140,351.8361002604167,140,360.0048828125,140C368.1736653645833,140,376.3424479166667,140,380.4268391927083,140L384.51123046875,140" style="stroke: rgb(0, 0, 0); stroke-width: 1px; fill: none; marker-end: url(&quot;#arrowhead-vee&quot;);"/><path id="edge-model_3/model_2/dense_3/MatMul_1;model_3/model_2/dense_3/BiasAdd_1&#10;15" class="edge-path" d="M483.80810546875,140L487.8924967447917,140C491.9768880208333,140,500.1456705729167,140,514.0544860839844,133.58333333333334C527.963301595052,127.16666666666667,547.6121500651042,114.33333333333333,557.4365743001302,107.91666666666667L567.2609985351562,101.5" style="stroke: rgb(0, 0, 0); stroke-width: 1px; fill: none; marker-end: url(&quot;#arrowhead-vee&quot;);"/><path id="edge-model_3/lambda_1/Square;model_3/lambda_1/sub&#10;16" class="edge-path" d="M636.916015625,90L641.0004069010416,90C645.0847981770834,90,653.2535807291666,90,661.42236328125,90C669.5911458333334,90,677.7599283854166,90,681.8443196614584,90L685.9287109375,90" style="stroke: rgb(0, 0, 0); stroke-width: 1px; fill: none; marker-end: url(&quot;#arrowhead-vee&quot;);"/><path id="edge-model_3/lambda_1/Sum&#10;17" class="edge-path" d="M760.9287109375,90L764.0641276041666,90C767.1995442708334,90,773.4703776041666,90,779.7412109375,90C786.0120442708334,90,792.2828776041666,90,795.4182942708334,90L798.5537109375,90" style="stroke: rgb(0, 0, 0); stroke-width: 1px; fill: none; marker-end: url(&quot;#arrowhead-vee&quot;);"/><path id="edge-model_3/lambda_1/Maximum&#10;18" class="edge-path" d="M899.81884765625,90L902.9542643229166,90C906.0896809895834,90,912.3605143229166,90,918.63134765625,90C924.9021809895834,90,931.1730143229166,90,934.3084309895834,90L937.44384765625,90" style="stroke: rgb(0, 0, 0); stroke-width: 1px; fill: none; marker-end: url(&quot;#arrowhead-vee&quot;);"/><path id="edge-model_3/lambda_1/clip_by_value/Minimum&#10;19" class="edge-path" d="M1012.44384765625,90L1015.5792643229166,90C1018.7146809895834,90,1024.9855143229167,90,1031.25634765625,90C1037.5271809895833,90,1043.7980143229167,90,1046.9334309895833,90L1050.06884765625,90" style="stroke: rgb(0, 0, 0); stroke-width: 1px; fill: none; marker-end: url(&quot;#arrowhead-vee&quot;);"/><path id="edge-model_3/lambda_1/clip_by_value;model_3/lambda_1/Const&#10;20" class="edge-path" d="M1084.97509765625,90L1088.1105143229167,90C1091.2459309895833,90,1097.5167643229167,90,1103.78759765625,90C1110.0584309895833,90,1116.3292643229167,90,1119.4646809895833,90L1122.60009765625,90" style="stroke: rgb(0, 0, 0); stroke-width: 1px; fill: none; marker-end: url(&quot;#arrowhead-vee&quot;);"/><path id="edge-Identity&#10;21" class="edge-path" d="M1156.74560546875,90L1159.8810221354167,90C1163.0164388020833,90,1169.2872721354167,90,1175.55810546875,90C1181.8289388020833,90,1188.0997721354167,90,1191.2351888020833,90L1194.37060546875,90" style="stroke: rgb(0, 0, 0); stroke-width: 1px; fill: none; marker-end: url(&quot;#arrowhead-vee&quot;);"/></g><g id="edge-labels" class="edge-labels"><text class="edge-label" id="edge-label-edge-input_4&#10;0" transform="translate(78.81689453125,50)" style="opacity: 1; font-family: -apple-system, BlinkMacSystemFont, &quot;Segoe WPC&quot;, &quot;Segoe UI&quot;, Ubuntu, &quot;Droid Sans&quot;, sans-serif, &quot;PingFang SC&quot;; font-size: 10px;"><tspan xml:space="preserve" dy="1em" x="1">1×42</tspan></text><text class="edge-label" id="edge-label-edge-input_5&#10;1" transform="translate(78.81689453125,150)" style="opacity: 1; font-family: -apple-system, BlinkMacSystemFont, &quot;Segoe WPC&quot;, &quot;Segoe UI&quot;, Ubuntu, &quot;Droid Sans&quot;, sans-serif, &quot;PingFang SC&quot;; font-size: 10px;"><tspan xml:space="preserve" dy="1em" x="1">1×42</tspan></text><text class="edge-label" id="edge-label-edge-model_3/model_2/flatten_1/Reshape&#10;10" transform="translate(207.43896484375,50)" style="opacity: 1; font-family: -apple-system, BlinkMacSystemFont, &quot;Segoe WPC&quot;, &quot;Segoe UI&quot;, Ubuntu, &quot;Droid Sans&quot;, sans-serif, &quot;PingFang SC&quot;; font-size: 10px;"><tspan xml:space="preserve" dy="1em" x="1">1×42</tspan></text><text class="edge-label" id="edge-label-edge-model_3/model_2/dense_2/MatMul;model_3/model_2/dense_2/Relu;model_3/model_2/dense_2/BiasAdd&#10;11" transform="translate(345.49853515625,50)" style="opacity: 1; font-family: -apple-system, BlinkMacSystemFont, &quot;Segoe WPC&quot;, &quot;Segoe UI&quot;, Ubuntu, &quot;Droid Sans&quot;, sans-serif, &quot;PingFang SC&quot;; font-size: 10px;"><tspan xml:space="preserve" dy="1em" x="1">1×128</tspan></text><text class="edge-label" id="edge-label-edge-model_3/model_2/dense_3/MatMul;model_3/model_2/dense_3/BiasAdd&#10;12" transform="translate(493.80810546875,50)" style="opacity: 1; font-family: -apple-system, BlinkMacSystemFont, &quot;Segoe WPC&quot;, &quot;Segoe UI&quot;, Ubuntu, &quot;Droid Sans&quot;, sans-serif, &quot;PingFang SC&quot;; font-size: 10px;"><tspan xml:space="preserve" dy="1em" x="1">1×256</tspan></text><text class="edge-label" id="edge-label-edge-model_3/model_2/flatten_1/Reshape_1&#10;13" transform="translate(207.43896484375,150)" style="opacity: 1; font-family: -apple-system, BlinkMacSystemFont, &quot;Segoe WPC&quot;, &quot;Segoe UI&quot;, Ubuntu, &quot;Droid Sans&quot;, sans-serif, &quot;PingFang SC&quot;; font-size: 10px;"><tspan xml:space="preserve" dy="1em" x="1">1×42</tspan></text><text class="edge-label" id="edge-label-edge-model_3/model_2/dense_2/MatMul_1;model_3/model_2/dense_2/Relu_1;model_3/model_2/dense_2/BiasAdd_1&#10;14" transform="translate(345.49853515625,150)" style="opacity: 1; font-family: -apple-system, BlinkMacSystemFont, &quot;Segoe WPC&quot;, &quot;Segoe UI&quot;, Ubuntu, &quot;Droid Sans&quot;, sans-serif, &quot;PingFang SC&quot;; font-size: 10px;"><tspan xml:space="preserve" dy="1em" x="1">1×128</tspan></text><text class="edge-label" id="edge-label-edge-model_3/model_2/dense_3/MatMul_1;model_3/model_2/dense_3/BiasAdd_1&#10;15" transform="translate(493.80810546875,150)" style="opacity: 1; font-family: -apple-system, BlinkMacSystemFont, &quot;Segoe WPC&quot;, &quot;Segoe UI&quot;, Ubuntu, &quot;Droid Sans&quot;, sans-serif, &quot;PingFang SC&quot;; font-size: 10px;"><tspan xml:space="preserve" dy="1em" x="1">1×256</tspan></text><text class="edge-label" id="edge-label-edge-model_3/lambda_1/Square;model_3/lambda_1/sub&#10;16" transform="translate(646.916015625,100)" style="opacity: 1; font-family: -apple-system, BlinkMacSystemFont, &quot;Segoe WPC&quot;, &quot;Segoe UI&quot;, Ubuntu, &quot;Droid Sans&quot;, sans-serif, &quot;PingFang SC&quot;; font-size: 10px;"><tspan xml:space="preserve" dy="1em" x="1">1×256</tspan></text><text class="edge-label" id="edge-label-edge-model_3/lambda_1/Sum&#10;17" transform="translate(770.9287109375,100)" style="opacity: 1; font-family: -apple-system, BlinkMacSystemFont, &quot;Segoe WPC&quot;, &quot;Segoe UI&quot;, Ubuntu, &quot;Droid Sans&quot;, sans-serif, &quot;PingFang SC&quot;; font-size: 10px;"><tspan xml:space="preserve" dy="1em" x="1">1×1</tspan></text><text class="edge-label" id="edge-label-edge-model_3/lambda_1/Maximum&#10;18" transform="translate(909.81884765625,100)" style="opacity: 1; font-family: -apple-system, BlinkMacSystemFont, &quot;Segoe WPC&quot;, &quot;Segoe UI&quot;, Ubuntu, &quot;Droid Sans&quot;, sans-serif, &quot;PingFang SC&quot;; font-size: 10px;"><tspan xml:space="preserve" dy="1em" x="1">1×1</tspan></text><text class="edge-label" id="edge-label-edge-model_3/lambda_1/clip_by_value/Minimum&#10;19" transform="translate(1022.44384765625,100)" style="opacity: 1; font-family: -apple-system, BlinkMacSystemFont, &quot;Segoe WPC&quot;, &quot;Segoe UI&quot;, Ubuntu, &quot;Droid Sans&quot;, sans-serif, &quot;PingFang SC&quot;; font-size: 10px;"><tspan xml:space="preserve" dy="1em" x="1">1×1</tspan></text><text class="edge-label" id="edge-label-edge-model_3/lambda_1/clip_by_value;model_3/lambda_1/Const&#10;20" transform="translate(1094.97509765625,100)" style="opacity: 1; font-family: -apple-system, BlinkMacSystemFont, &quot;Segoe WPC&quot;, &quot;Segoe UI&quot;, Ubuntu, &quot;Droid Sans&quot;, sans-serif, &quot;PingFang SC&quot;; font-size: 10px;"><tspan xml:space="preserve" dy="1em" x="1">1×1</tspan></text><text class="edge-label" id="edge-label-edge-Identity&#10;21" transform="translate(1166.74560546875,100)" style="opacity: 1; font-family: -apple-system, BlinkMacSystemFont, &quot;Segoe WPC&quot;, &quot;Segoe UI&quot;, Ubuntu, &quot;Droid Sans&quot;, sans-serif, &quot;PingFang SC&quot;; font-size: 10px;"><tspan xml:space="preserve" dy="1em" x="1">1×1</tspan></text></g><g id="nodes" class="nodes"><g id="input-name-input_4&#10;0" class="node graph-input" transform="translate(0,28.5)" style="opacity: 1;"><g class="node-item graph-item-input" transform="translate(0,0)"><path d="M5,0h48.81689453125a5,5 0 0 1 5,5v13a5,5 0 0 1 -5,5h-48.81689453125a5,5 0 0 1 -5,-5v-13a5,5 0 0 1 5,-5z" style="stroke: rgb(0, 0, 0); fill: rgb(238, 238, 238); stroke-width: 0;"/><text x="6" y="16" style="font-family: -apple-system, BlinkMacSystemFont, &quot;Segoe WPC&quot;, &quot;Segoe UI&quot;, Ubuntu, &quot;Droid Sans&quot;, sans-serif, &quot;PingFang SC&quot;; font-size: 11px; text-rendering: geometricprecision;">input_4
0</text><title>float32[1,42]</title></g><path class="node border" d="M5,0h48.81689453125a5,5 0 0 1 5,5v13a5,5 0 0 1 -5,5h-48.81689453125a5,5 0 0 1 -5,-5v-13a5,5 0 0 1 5,-5z" style="stroke: rgb(51, 51, 51); fill: none; stroke-width: 1px;"/></g><g id="input-name-input_5&#10;1" class="node graph-input" transform="translate(0.033447265625,128.5)" style="opacity: 1;"><g class="node-item graph-item-input" transform="translate(0,0)"><path d="M5,0h48.75a5,5 0 0 1 5,5v13a5,5 0 0 1 -5,5h-48.75a5,5 0 0 1 -5,-5v-13a5,5 0 0 1 5,-5z" style="stroke: rgb(0, 0, 0); fill: rgb(238, 238, 238); stroke-width: 0;"/><text x="6" y="16" style="font-family: -apple-system, BlinkMacSystemFont, &quot;Segoe WPC&quot;, &quot;Segoe UI&quot;, Ubuntu, &quot;Droid Sans&quot;, sans-serif, &quot;PingFang SC&quot;; font-size: 11px; text-rendering: geometricprecision;">input_5
1</text><title>float32[1,42]</title></g><path class="node border" d="M5,0h48.75a5,5 0 0 1 5,5v13a5,5 0 0 1 -5,5h-48.75a5,5 0 0 1 -5,-5v-13a5,5 0 0 1 5,-5z" style="stroke: rgb(51, 51, 51); fill: none; stroke-width: 1px;"/></g><g id="node-id-12" class="node graph-node" transform="translate(122.43896484375,18.5)" style="opacity: 1;"><g class="node-item node-item-type node-item-type-shape" transform="translate(0,0)"><path d="M5,0h65a5,5 0 0 1 5,5v18a0,0 0 0 1 0,0h-75a0,0 0 0 1 0,0v-18a5,5 0 0 1 5,-5z" style="stroke: rgb(0, 0, 0); fill: rgb(108, 79, 71); stroke-width: 0;"/><text x="6" y="16" style="font-family: -apple-system, BlinkMacSystemFont, &quot;Segoe WPC&quot;, &quot;Segoe UI&quot;, Ubuntu, &quot;Droid Sans&quot;, sans-serif, &quot;PingFang SC&quot;; font-size: 11px; text-rendering: geometricprecision; fill: rgb(255, 255, 255);">Reshape</text><title>0</title></g><g class="node-attribute" transform="translate(0,23)"><path d="M0,0h75a0,0 0 0 1 0,0v15a5,5 0 0 1 -5,5h-65a5,5 0 0 1 -5,-5v-15a0,0 0 0 1 0,0z" style="stroke: rgb(0, 0, 0); fill: rgb(255, 255, 255); stroke-width: 0;"/><text id="initializer-model_3/model_2/flatten_1/Const_1&#10;7" xml:space="preserve" x="6" y="14" style="font-family: -apple-system, BlinkMacSystemFont, &quot;Segoe WPC&quot;, &quot;Segoe UI&quot;, Ubuntu, &quot;Droid Sans&quot;, sans-serif, &quot;PingFang SC&quot;; font-size: 9px; font-weight: normal; text-rendering: geometricprecision;"><title>int32[2]</title><tspan style="font-weight: bold;">shape</tspan><tspan>〈2〉</tspan></text><line class="node" x1="0" x2="75" y1="0" y2="0" style="stroke: rgb(51, 51, 51); fill: none; stroke-width: 1px;"/></g><path class="node border" d="M5,0h65a5,5 0 0 1 5,5v33a5,5 0 0 1 -5,5h-65a5,5 0 0 1 -5,-5v-33a5,5 0 0 1 5,-5z" style="stroke: rgb(51, 51, 51); fill: none; stroke-width: 1px;"/></g><g id="node-id-13" class="node graph-node" transform="translate(241.06103515625,0)" style="opacity: 1;"><g class="node-item node-item-type node-item-type-layer" transform="translate(0,0)"><path d="M5,0h84.4375a5,5 0 0 1 5,5v18a0,0 0 0 1 0,0h-94.4375a0,0 0 0 1 0,0v-18a5,5 0 0 1 5,-5z" style="stroke: rgb(0, 0, 0); fill: rgb(51, 85, 136); stroke-width: 0;"/><text x="6" y="16" style="font-family: -apple-system, BlinkMacSystemFont, &quot;Segoe WPC&quot;, &quot;Segoe UI&quot;, Ubuntu, &quot;Droid Sans&quot;, sans-serif, &quot;PingFang SC&quot;; font-size: 11px; text-rendering: geometricprecision; fill: rgb(255, 255, 255);">FullyConnected</text><title>1</title></g><g class="node-attribute" transform="translate(0,23)"><path d="M0,0h94.4375a0,0 0 0 1 0,0v34a0,0 0 0 1 0,0h-94.4375a0,0 0 0 1 0,0v-34a0,0 0 0 1 0,0z" style="stroke: rgb(0, 0, 0); fill: rgb(255, 255, 255); stroke-width: 0;"/><text id="initializer-model_3/model_2/dense_2/MatMul_1&#10;8" xml:space="preserve" x="6" y="14" style="font-family: -apple-system, BlinkMacSystemFont, &quot;Segoe WPC&quot;, &quot;Segoe UI&quot;, Ubuntu, &quot;Droid Sans&quot;, sans-serif, &quot;PingFang SC&quot;; font-size: 9px; font-weight: normal; text-rendering: geometricprecision;"><title>int8[128,42]</title><tspan style="font-weight: bold;">weights</tspan><tspan>〈128×42〉</tspan></text><text id="initializer-model_3/model_2/dense_2/BiasAdd/ReadVariableOp/resource&#10;5" xml:space="preserve" x="6" y="28" style="font-family: -apple-system, BlinkMacSystemFont, &quot;Segoe WPC&quot;, &quot;Segoe UI&quot;, Ubuntu, &quot;Droid Sans&quot;, sans-serif, &quot;PingFang SC&quot;; font-size: 9px; font-weight: normal; text-rendering: geometricprecision;"><title>float32[128]</title><tspan style="font-weight: bold;">bias</tspan><tspan>〈128〉</tspan></text><line class="node" x1="0" x2="94.4375" y1="0" y2="0" style="stroke: rgb(51, 51, 51); fill: none; stroke-width: 1px;"/></g><g class="node-item node-item-type node-item-type-activation" transform="translate(0,57)"><path d="M0,0h94.4375a0,0 0 0 1 0,0v18a5,5 0 0 1 -5,5h-84.4375a5,5 0 0 1 -5,-5v-18a0,0 0 0 1 0,0z" style="stroke: rgb(0, 0, 0); fill: rgb(112, 41, 33); stroke-width: 0;"/><text x="6" y="16" style="font-family: -apple-system, BlinkMacSystemFont, &quot;Segoe WPC&quot;, &quot;Segoe UI&quot;, Ubuntu, &quot;Droid Sans&quot;, sans-serif, &quot;PingFang SC&quot;; font-size: 11px; text-rendering: geometricprecision; fill: rgb(255, 255, 255);">Relu</text></g><line class="node" x1="0" x2="94.4375" y1="57" y2="57" style="stroke: rgb(51, 51, 51); fill: none; stroke-width: 1px;"/><path class="node border" d="M5,0h84.4375a5,5 0 0 1 5,5v70a5,5 0 0 1 -5,5h-84.4375a5,5 0 0 1 -5,-5v-70a5,5 0 0 1 5,-5z" style="stroke: rgb(51, 51, 51); fill: none; stroke-width: 1px;"/></g><g id="node-id-14" class="node graph-node" transform="translate(384.51123046875,11.5)" style="opacity: 1;"><g class="node-item node-item-type node-item-type-layer" transform="translate(0,0)"><path d="M5,0h89.296875a5,5 0 0 1 5,5v18a0,0 0 0 1 0,0h-99.296875a0,0 0 0 1 0,0v-18a5,5 0 0 1 5,-5z" style="stroke: rgb(0, 0, 0); fill: rgb(51, 85, 136); stroke-width: 0;"/><text x="6" y="16" style="font-family: -apple-system, BlinkMacSystemFont, &quot;Segoe WPC&quot;, &quot;Segoe UI&quot;, Ubuntu, &quot;Droid Sans&quot;, sans-serif, &quot;PingFang SC&quot;; font-size: 11px; text-rendering: geometricprecision; fill: rgb(255, 255, 255);">FullyConnected</text><title>2</title></g><g class="node-attribute" transform="translate(0,23)"><path d="M0,0h99.296875a0,0 0 0 1 0,0v29a5,5 0 0 1 -5,5h-89.296875a5,5 0 0 1 -5,-5v-29a0,0 0 0 1 0,0z" style="stroke: rgb(0, 0, 0); fill: rgb(255, 255, 255); stroke-width: 0;"/><text id="initializer-model_3/model_2/dense_3/MatMul_1&#10;9" xml:space="preserve" x="6" y="14" style="font-family: -apple-system, BlinkMacSystemFont, &quot;Segoe WPC&quot;, &quot;Segoe UI&quot;, Ubuntu, &quot;Droid Sans&quot;, sans-serif, &quot;PingFang SC&quot;; font-size: 9px; font-weight: normal; text-rendering: geometricprecision;"><title>int8[256,128]</title><tspan style="font-weight: bold;">weights</tspan><tspan>〈256×128〉</tspan></text><text id="initializer-model_3/model_2/dense_3/BiasAdd/ReadVariableOp/resource&#10;6" xml:space="preserve" x="6" y="28" style="font-family: -apple-system, BlinkMacSystemFont, &quot;Segoe WPC&quot;, &quot;Segoe UI&quot;, Ubuntu, &quot;Droid Sans&quot;, sans-serif, &quot;PingFang SC&quot;; font-size: 9px; font-weight: normal; text-rendering: geometricprecision;"><title>float32[256]</title><tspan style="font-weight: bold;">bias</tspan><tspan>〈256〉</tspan></text><line class="node" x1="0" x2="99.296875" y1="0" y2="0" style="stroke: rgb(51, 51, 51); fill: none; stroke-width: 1px;"/></g><path class="node border" d="M5,0h89.296875a5,5 0 0 1 5,5v47a5,5 0 0 1 -5,5h-89.296875a5,5 0 0 1 -5,-5v-47a5,5 0 0 1 5,-5z" style="stroke: rgb(51, 51, 51); fill: none; stroke-width: 1px;"/></g><g id="node-id-15" class="node graph-node" transform="translate(122.43896484375,118.5)" style="opacity: 1;"><g class="node-item node-item-type node-item-type-shape" transform="translate(0,0)"><path d="M5,0h65a5,5 0 0 1 5,5v18a0,0 0 0 1 0,0h-75a0,0 0 0 1 0,0v-18a5,5 0 0 1 5,-5z" style="stroke: rgb(0, 0, 0); fill: rgb(108, 79, 71); stroke-width: 0;"/><text x="6" y="16" style="font-family: -apple-system, BlinkMacSystemFont, &quot;Segoe WPC&quot;, &quot;Segoe UI&quot;, Ubuntu, &quot;Droid Sans&quot;, sans-serif, &quot;PingFang SC&quot;; font-size: 11px; text-rendering: geometricprecision; fill: rgb(255, 255, 255);">Reshape</text><title>3</title></g><g class="node-attribute" transform="translate(0,23)"><path d="M0,0h75a0,0 0 0 1 0,0v15a5,5 0 0 1 -5,5h-65a5,5 0 0 1 -5,-5v-15a0,0 0 0 1 0,0z" style="stroke: rgb(0, 0, 0); fill: rgb(255, 255, 255); stroke-width: 0;"/><text id="initializer-model_3/model_2/flatten_1/Const_1&#10;7" xml:space="preserve" x="6" y="14" style="font-family: -apple-system, BlinkMacSystemFont, &quot;Segoe WPC&quot;, &quot;Segoe UI&quot;, Ubuntu, &quot;Droid Sans&quot;, sans-serif, &quot;PingFang SC&quot;; font-size: 9px; font-weight: normal; text-rendering: geometricprecision;"><title>int32[2]</title><tspan style="font-weight: bold;">shape</tspan><tspan>〈2〉</tspan></text><line class="node" x1="0" x2="75" y1="0" y2="0" style="stroke: rgb(51, 51, 51); fill: none; stroke-width: 1px;"/></g><path class="node border" d="M5,0h65a5,5 0 0 1 5,5v33a5,5 0 0 1 -5,5h-65a5,5 0 0 1 -5,-5v-33a5,5 0 0 1 5,-5z" style="stroke: rgb(51, 51, 51); fill: none; stroke-width: 1px;"/></g><g id="node-id-16" class="node graph-node" transform="translate(241.06103515625,100)" style="opacity: 1;"><g class="node-item node-item-type node-item-type-layer" transform="translate(0,0)"><path d="M5,0h84.4375a5,5 0 0 1 5,5v18a0,0 0 0 1 0,0h-94.4375a0,0 0 0 1 0,0v-18a5,5 0 0 1 5,-5z" style="stroke: rgb(0, 0, 0); fill: rgb(51, 85, 136); stroke-width: 0;"/><text x="6" y="16" style="font-family: -apple-system, BlinkMacSystemFont, &quot;Segoe WPC&quot;, &quot;Segoe UI&quot;, Ubuntu, &quot;Droid Sans&quot;, sans-serif, &quot;PingFang SC&quot;; font-size: 11px; text-rendering: geometricprecision; fill: rgb(255, 255, 255);">FullyConnected</text><title>4</title></g><g class="node-attribute" transform="translate(0,23)"><path d="M0,0h94.4375a0,0 0 0 1 0,0v34a0,0 0 0 1 0,0h-94.4375a0,0 0 0 1 0,0v-34a0,0 0 0 1 0,0z" style="stroke: rgb(0, 0, 0); fill: rgb(255, 255, 255); stroke-width: 0;"/><text id="initializer-model_3/model_2/dense_2/MatMul_1&#10;8" xml:space="preserve" x="6" y="14" style="font-family: -apple-system, BlinkMacSystemFont, &quot;Segoe WPC&quot;, &quot;Segoe UI&quot;, Ubuntu, &quot;Droid Sans&quot;, sans-serif, &quot;PingFang SC&quot;; font-size: 9px; font-weight: normal; text-rendering: geometricprecision;"><title>int8[128,42]</title><tspan style="font-weight: bold;">weights</tspan><tspan>〈128×42〉</tspan></text><text id="initializer-model_3/model_2/dense_2/BiasAdd/ReadVariableOp/resource&#10;5" xml:space="preserve" x="6" y="28" style="font-family: -apple-system, BlinkMacSystemFont, &quot;Segoe WPC&quot;, &quot;Segoe UI&quot;, Ubuntu, &quot;Droid Sans&quot;, sans-serif, &quot;PingFang SC&quot;; font-size: 9px; font-weight: normal; text-rendering: geometricprecision;"><title>float32[128]</title><tspan style="font-weight: bold;">bias</tspan><tspan>〈128〉</tspan></text><line class="node" x1="0" x2="94.4375" y1="0" y2="0" style="stroke: rgb(51, 51, 51); fill: none; stroke-width: 1px;"/></g><g class="node-item node-item-type node-item-type-activation" transform="translate(0,57)"><path d="M0,0h94.4375a0,0 0 0 1 0,0v18a5,5 0 0 1 -5,5h-84.4375a5,5 0 0 1 -5,-5v-18a0,0 0 0 1 0,0z" style="stroke: rgb(0, 0, 0); fill: rgb(112, 41, 33); stroke-width: 0;"/><text x="6" y="16" style="font-family: -apple-system, BlinkMacSystemFont, &quot;Segoe WPC&quot;, &quot;Segoe UI&quot;, Ubuntu, &quot;Droid Sans&quot;, sans-serif, &quot;PingFang SC&quot;; font-size: 11px; text-rendering: geometricprecision; fill: rgb(255, 255, 255);">Relu</text></g><line class="node" x1="0" x2="94.4375" y1="57" y2="57" style="stroke: rgb(51, 51, 51); fill: none; stroke-width: 1px;"/><path class="node border" d="M5,0h84.4375a5,5 0 0 1 5,5v70a5,5 0 0 1 -5,5h-84.4375a5,5 0 0 1 -5,-5v-70a5,5 0 0 1 5,-5z" style="stroke: rgb(51, 51, 51); fill: none; stroke-width: 1px;"/></g><g id="node-id-17" class="node graph-node" transform="translate(384.51123046875,111.5)" style="opacity: 1;"><g class="node-item node-item-type node-item-type-layer" transform="translate(0,0)"><path d="M5,0h89.296875a5,5 0 0 1 5,5v18a0,0 0 0 1 0,0h-99.296875a0,0 0 0 1 0,0v-18a5,5 0 0 1 5,-5z" style="stroke: rgb(0, 0, 0); fill: rgb(51, 85, 136); stroke-width: 0;"/><text x="6" y="16" style="font-family: -apple-system, BlinkMacSystemFont, &quot;Segoe WPC&quot;, &quot;Segoe UI&quot;, Ubuntu, &quot;Droid Sans&quot;, sans-serif, &quot;PingFang SC&quot;; font-size: 11px; text-rendering: geometricprecision; fill: rgb(255, 255, 255);">FullyConnected</text><title>5</title></g><g class="node-attribute" transform="translate(0,23)"><path d="M0,0h99.296875a0,0 0 0 1 0,0v29a5,5 0 0 1 -5,5h-89.296875a5,5 0 0 1 -5,-5v-29a0,0 0 0 1 0,0z" style="stroke: rgb(0, 0, 0); fill: rgb(255, 255, 255); stroke-width: 0;"/><text id="initializer-model_3/model_2/dense_3/MatMul_1&#10;9" xml:space="preserve" x="6" y="14" style="font-family: -apple-system, BlinkMacSystemFont, &quot;Segoe WPC&quot;, &quot;Segoe UI&quot;, Ubuntu, &quot;Droid Sans&quot;, sans-serif, &quot;PingFang SC&quot;; font-size: 9px; font-weight: normal; text-rendering: geometricprecision;"><title>int8[256,128]</title><tspan style="font-weight: bold;">weights</tspan><tspan>〈256×128〉</tspan></text><text id="initializer-model_3/model_2/dense_3/BiasAdd/ReadVariableOp/resource&#10;6" xml:space="preserve" x="6" y="28" style="font-family: -apple-system, BlinkMacSystemFont, &quot;Segoe WPC&quot;, &quot;Segoe UI&quot;, Ubuntu, &quot;Droid Sans&quot;, sans-serif, &quot;PingFang SC&quot;; font-size: 9px; font-weight: normal; text-rendering: geometricprecision;"><title>float32[256]</title><tspan style="font-weight: bold;">bias</tspan><tspan>〈256〉</tspan></text><line class="node" x1="0" x2="99.296875" y1="0" y2="0" style="stroke: rgb(51, 51, 51); fill: none; stroke-width: 1px;"/></g><path class="node border" d="M5,0h89.296875a5,5 0 0 1 5,5v47a5,5 0 0 1 -5,5h-89.296875a5,5 0 0 1 -5,-5v-47a5,5 0 0 1 5,-5z" style="stroke: rgb(51, 51, 51); fill: none; stroke-width: 1px;"/></g><g id="node-id-18" class="node graph-node" transform="translate(532.82080078125,78.5)" style="opacity: 1;"><g class="node-item node-item-type" transform="translate(0,0)"><path d="M5,0h94.09521484375a5,5 0 0 1 5,5v13a5,5 0 0 1 -5,5h-94.09521484375a5,5 0 0 1 -5,-5v-13a5,5 0 0 1 5,-5z" style="stroke: rgb(0, 0, 0); fill: rgb(0, 0, 0); stroke-width: 0;"/><text x="6" y="16" style="font-family: -apple-system, BlinkMacSystemFont, &quot;Segoe WPC&quot;, &quot;Segoe UI&quot;, Ubuntu, &quot;Droid Sans&quot;, sans-serif, &quot;PingFang SC&quot;; font-size: 11px; text-rendering: geometricprecision; fill: rgb(255, 255, 255);">SquaredDifference</text><title>6</title></g><path class="node border" d="M5,0h94.09521484375a5,5 0 0 1 5,5v13a5,5 0 0 1 -5,5h-94.09521484375a5,5 0 0 1 -5,-5v-13a5,5 0 0 1 5,-5z" style="stroke: rgb(51, 51, 51); fill: none; stroke-width: 1px;"/></g><g id="node-id-19" class="node graph-node" transform="translate(685.9287109375,68.5)" style="opacity: 1;"><g class="node-item node-item-type" transform="translate(0,0)"><path d="M5,0h65a5,5 0 0 1 5,5v18a0,0 0 0 1 0,0h-75a0,0 0 0 1 0,0v-18a5,5 0 0 1 5,-5z" style="stroke: rgb(0, 0, 0); fill: rgb(0, 0, 0); stroke-width: 0;"/><text x="6" y="16" style="font-family: -apple-system, BlinkMacSystemFont, &quot;Segoe WPC&quot;, &quot;Segoe UI&quot;, Ubuntu, &quot;Droid Sans&quot;, sans-serif, &quot;PingFang SC&quot;; font-size: 11px; text-rendering: geometricprecision; fill: rgb(255, 255, 255);">Sum</text><title>7</title></g><g class="node-attribute" transform="translate(0,23)"><path d="M0,0h75a0,0 0 0 1 0,0v15a5,5 0 0 1 -5,5h-65a5,5 0 0 1 -5,-5v-15a0,0 0 0 1 0,0z" style="stroke: rgb(0, 0, 0); fill: rgb(255, 255, 255); stroke-width: 0;"/><text id="initializer-model_3/lambda_1/Sum/reduction_indices&#10;4" xml:space="preserve" x="6" y="14" style="font-family: -apple-system, BlinkMacSystemFont, &quot;Segoe WPC&quot;, &quot;Segoe UI&quot;, Ubuntu, &quot;Droid Sans&quot;, sans-serif, &quot;PingFang SC&quot;; font-size: 9px; font-weight: normal; text-rendering: geometricprecision;"><title>int32</title><tspan>axis</tspan><tspan> = 1</tspan></text><line class="node" x1="0" x2="75" y1="0" y2="0" style="stroke: rgb(51, 51, 51); fill: none; stroke-width: 1px;"/></g><path class="node border" d="M5,0h65a5,5 0 0 1 5,5v33a5,5 0 0 1 -5,5h-65a5,5 0 0 1 -5,-5v-33a5,5 0 0 1 5,-5z" style="stroke: rgb(51, 51, 51); fill: none; stroke-width: 1px;"/></g><g id="node-id-20" class="node graph-node" transform="translate(798.5537109375,68.5)" style="opacity: 1;"><g class="node-item node-item-type" transform="translate(0,0)"><path d="M5,0h91.26513671875a5,5 0 0 1 5,5v18a0,0 0 0 1 0,0h-101.26513671875a0,0 0 0 1 0,0v-18a5,5 0 0 1 5,-5z" style="stroke: rgb(0, 0, 0); fill: rgb(0, 0, 0); stroke-width: 0;"/><text x="6" y="16" style="font-family: -apple-system, BlinkMacSystemFont, &quot;Segoe WPC&quot;, &quot;Segoe UI&quot;, Ubuntu, &quot;Droid Sans&quot;, sans-serif, &quot;PingFang SC&quot;; font-size: 11px; text-rendering: geometricprecision; fill: rgb(255, 255, 255);">Maximum</text><title>8</title></g><g class="node-attribute" transform="translate(0,23)"><path d="M0,0h101.26513671875a0,0 0 0 1 0,0v15a5,5 0 0 1 -5,5h-91.26513671875a5,5 0 0 1 -5,-5v-15a0,0 0 0 1 0,0z" style="stroke: rgb(0, 0, 0); fill: rgb(255, 255, 255); stroke-width: 0;"/><text id="initializer-model_3/lambda_1/Maximum/y&#10;3" xml:space="preserve" x="6" y="14" style="font-family: -apple-system, BlinkMacSystemFont, &quot;Segoe WPC&quot;, &quot;Segoe UI&quot;, Ubuntu, &quot;Droid Sans&quot;, sans-serif, &quot;PingFang SC&quot;; font-size: 9px; font-weight: normal; text-rendering: geometricprecision;"><title>float32</title><tspan>input2</tspan><tspan> = 1.00000001…</tspan></text><line class="node" x1="0" x2="101.26513671875" y1="0" y2="0" style="stroke: rgb(51, 51, 51); fill: none; stroke-width: 1px;"/></g><path class="node border" d="M5,0h91.26513671875a5,5 0 0 1 5,5v33a5,5 0 0 1 -5,5h-91.26513671875a5,5 0 0 1 -5,-5v-33a5,5 0 0 1 5,-5z" style="stroke: rgb(51, 51, 51); fill: none; stroke-width: 1px;"/></g><g id="node-id-21" class="node graph-node" transform="translate(937.44384765625,68.5)" style="opacity: 1;"><g class="node-item node-item-type" transform="translate(0,0)"><path d="M5,0h65a5,5 0 0 1 5,5v18a0,0 0 0 1 0,0h-75a0,0 0 0 1 0,0v-18a5,5 0 0 1 5,-5z" style="stroke: rgb(0, 0, 0); fill: rgb(0, 0, 0); stroke-width: 0;"/><text x="6" y="16" style="font-family: -apple-system, BlinkMacSystemFont, &quot;Segoe WPC&quot;, &quot;Segoe UI&quot;, Ubuntu, &quot;Droid Sans&quot;, sans-serif, &quot;PingFang SC&quot;; font-size: 11px; text-rendering: geometricprecision; fill: rgb(255, 255, 255);">Minimum</text><title>9</title></g><g class="node-attribute" transform="translate(0,23)"><path d="M0,0h75a0,0 0 0 1 0,0v15a5,5 0 0 1 -5,5h-65a5,5 0 0 1 -5,-5v-15a0,0 0 0 1 0,0z" style="stroke: rgb(0, 0, 0); fill: rgb(255, 255, 255); stroke-width: 0;"/><text id="initializer-model_3/lambda_1/Const_1&#10;2" xml:space="preserve" x="6" y="14" style="font-family: -apple-system, BlinkMacSystemFont, &quot;Segoe WPC&quot;, &quot;Segoe UI&quot;, Ubuntu, &quot;Droid Sans&quot;, sans-serif, &quot;PingFang SC&quot;; font-size: 9px; font-weight: normal; text-rendering: geometricprecision;"><title>float32</title><tspan>input2</tspan><tspan> = null</tspan></text><line class="node" x1="0" x2="75" y1="0" y2="0" style="stroke: rgb(51, 51, 51); fill: none; stroke-width: 1px;"/></g><path class="node border" d="M5,0h65a5,5 0 0 1 5,5v33a5,5 0 0 1 -5,5h-65a5,5 0 0 1 -5,-5v-33a5,5 0 0 1 5,-5z" style="stroke: rgb(51, 51, 51); fill: none; stroke-width: 1px;"/></g><g id="node-id-22" class="node graph-node" transform="translate(1050.06884765625,78.5)" style="opacity: 1;"><g class="node-item node-item-type node-item-type-activation" transform="translate(0,0)"><path d="M5,0h24.90625a5,5 0 0 1 5,5v13a5,5 0 0 1 -5,5h-24.90625a5,5 0 0 1 -5,-5v-13a5,5 0 0 1 5,-5z" style="stroke: rgb(0, 0, 0); fill: rgb(112, 41, 33); stroke-width: 0;"/><text x="6" y="16" style="font-family: -apple-system, BlinkMacSystemFont, &quot;Segoe WPC&quot;, &quot;Segoe UI&quot;, Ubuntu, &quot;Droid Sans&quot;, sans-serif, &quot;PingFang SC&quot;; font-size: 11px; text-rendering: geometricprecision; fill: rgb(255, 255, 255);">Relu</text><title>10</title></g><path class="node border" d="M5,0h24.90625a5,5 0 0 1 5,5v13a5,5 0 0 1 -5,5h-24.90625a5,5 0 0 1 -5,-5v-13a5,5 0 0 1 5,-5z" style="stroke: rgb(51, 51, 51); fill: none; stroke-width: 1px;"/></g><g id="node-id-23" class="node graph-node" transform="translate(1122.60009765625,78.5)" style="opacity: 1;"><g class="node-item node-item-type" transform="translate(0,0)"><path d="M5,0h24.1455078125a5,5 0 0 1 5,5v13a5,5 0 0 1 -5,5h-24.1455078125a5,5 0 0 1 -5,-5v-13a5,5 0 0 1 5,-5z" style="stroke: rgb(0, 0, 0); fill: rgb(0, 0, 0); stroke-width: 0;"/><text x="6" y="16" style="font-family: -apple-system, BlinkMacSystemFont, &quot;Segoe WPC&quot;, &quot;Segoe UI&quot;, Ubuntu, &quot;Droid Sans&quot;, sans-serif, &quot;PingFang SC&quot;; font-size: 11px; text-rendering: geometricprecision; fill: rgb(255, 255, 255);">Sqrt</text><title>11</title></g><path class="node border" d="M5,0h24.1455078125a5,5 0 0 1 5,5v13a5,5 0 0 1 -5,5h-24.1455078125a5,5 0 0 1 -5,-5v-13a5,5 0 0 1 5,-5z" style="stroke: rgb(51, 51, 51); fill: none; stroke-width: 1px;"/></g><g class="node" transform="translate(1194.37060546875,78.5)" style="opacity: 1;"><g class="node-item graph-item-output" transform="translate(0,0)"><path d="M5,0h55.703125a5,5 0 0 1 5,5v13a5,5 0 0 1 -5,5h-55.703125a5,5 0 0 1 -5,-5v-13a5,5 0 0 1 5,-5z" style="stroke: rgb(0, 0, 0); fill: rgb(238, 238, 238); stroke-width: 0;"/><text x="6" y="16" style="font-family: -apple-system, BlinkMacSystemFont, &quot;Segoe WPC&quot;, &quot;Segoe UI&quot;, Ubuntu, &quot;Droid Sans&quot;, sans-serif, &quot;PingFang SC&quot;; font-size: 11px; text-rendering: geometricprecision;">Identity
21</text><title>float32[1,1]</title></g><path class="node border" d="M5,0h55.703125a5,5 0 0 1 5,5v13a5,5 0 0 1 -5,5h-55.703125a5,5 0 0 1 -5,-5v-13a5,5 0 0 1 5,-5z" style="stroke: rgb(51, 51, 51); fill: none; stroke-width: 1px;"/></g></g></g></svg>