<svg xmlns="http://www.w3.org/2000/svg" id="export" class="canvas" preserveAspectRatio="xMidYMid meet" style="" width="1033" height="1188"><rect id="background" fill="#fff" pointer-events="all" width="1033" height="1188"/><g id="origin" transform="translate(46.91826171875, 46.91826171875) scale(1)"><g id="clusters" class="clusters"/><g id="edge-paths" class="edge-paths"><defs><marker id="arrowhead-vee" viewBox="0 0 10 10" refX="9" refY="5" markerUnits="strokeWidth" markerWidth="8" markerHeight="6" orient="auto" style="fill: rgb(0, 0, 0);"><path d="M 0 0 L 10 5 L 0 10 L 4 5 z" style="stroke-width: 1;"/></marker><marker id="arrowhead-vee-select" viewBox="0 0 10 10" refX="9" refY="5" markerUnits="strokeWidth" markerWidth="8" markerHeight="6" orient="auto" style="fill: rgb(238, 0, 0);"><path d="M 0 0 L 10 5 L 0 10 L 4 5 z" style="stroke-width: 1;"/></marker></defs><path id="edge-input_1&#10;0" class="edge-path" d="M75.453125,23L75.453125,24.666666666666668C75.453125,26.333333333333332,75.453125,29.666666666666668,75.453125,35C75.453125,40.333333333333336,75.453125,47.666666666666664,75.453125,55C75.453125,62.333333333333336,75.453125,69.66666666666667,75.453125,75C75.453125,80.33333333333333,75.453125,83.66666666666667,75.453125,85.33333333333333L75.453125,87" style="stroke: rgb(0, 0, 0); stroke-width: 1px; fill: none; marker-end: url(&quot;#arrowhead-vee&quot;);"/><path id="edge-input_2&#10;1" class="edge-path" d="M499.646484375,23L499.646484375,24.666666666666668C499.646484375,26.333333333333332,499.646484375,29.666666666666668,499.646484375,35C499.646484375,40.333333333333336,499.646484375,47.666666666666664,499.646484375,55C499.646484375,62.333333333333336,499.646484375,69.66666666666667,499.646484375,75C499.646484375,80.33333333333333,499.646484375,83.66666666666667,499.646484375,85.33333333333333L499.646484375,87" style="stroke: rgb(0, 0, 0); stroke-width: 1px; fill: none; marker-end: url(&quot;#arrowhead-vee&quot;);"/><path id="edge-model_1/model/flatten/Reshape&#10;12" class="edge-path" d="M75.453125,130L75.453125,133.66666666666666C75.453125,137.33333333333334,75.453125,144.66666666666666,75.453125,152C75.453125,159.33333333333334,75.453125,166.66666666666666,75.453125,170.33333333333334L75.453125,174" style="stroke: rgb(0, 0, 0); stroke-width: 1px; fill: none; marker-end: url(&quot;#arrowhead-vee&quot;);"/><path id="edge-model_1/model/dense/MatMul;model_1/model/dense/Relu;model_1/model/dense/BiasAdd&#10;13" class="edge-path" d="M75.453125,268L75.453125,271.6666666666667C75.453125,275.3333333333333,75.453125,282.6666666666667,75.453125,290C75.453125,297.3333333333333,75.453125,304.6666666666667,75.453125,308.3333333333333L75.453125,312" style="stroke: rgb(0, 0, 0); stroke-width: 1px; fill: none; marker-end: url(&quot;#arrowhead-vee&quot;);"/><path id="edge-model_1/model/dense_1/MatMul;model_1/model/dense_1/BiasAdd&#10;14" class="edge-path" d="M75.453125,383L75.453125,386.6666666666667C75.453125,390.3333333333333,75.453125,397.6666666666667,109.13590494791667,406.65342193593534C142.81868489583334,415.6401772052041,210.18424479166666,426.2803544104083,243.86702473958334,431.6004430130103L277.5498046875,436.92053161561233" style="stroke: rgb(0, 0, 0); stroke-width: 1px; fill: none; marker-end: url(&quot;#arrowhead-vee&quot;);"/><path id="edge-model_1/model/flatten/Reshape_1&#10;15" class="edge-path" d="M499.646484375,130L499.646484375,133.66666666666666C499.646484375,137.33333333333334,499.646484375,144.66666666666666,499.646484375,152C499.646484375,159.33333333333334,499.646484375,166.66666666666666,499.646484375,170.33333333333334L499.646484375,174" style="stroke: rgb(0, 0, 0); stroke-width: 1px; fill: none; marker-end: url(&quot;#arrowhead-vee&quot;);"/><path id="edge-model_1/model/dense/MatMul_1;model_1/model/dense/Relu_1;model_1/model/dense/BiasAdd_1&#10;16" class="edge-path" d="M499.646484375,268L499.646484375,271.6666666666667C499.646484375,275.3333333333333,499.646484375,282.6666666666667,499.646484375,290C499.646484375,297.3333333333333,499.646484375,304.6666666666667,499.646484375,308.3333333333333L499.646484375,312" style="stroke: rgb(0, 0, 0); stroke-width: 1px; fill: none; marker-end: url(&quot;#arrowhead-vee&quot;);"/><path id="edge-model_1/model/dense_1/MatMul_1;model_1/model/dense_1/BiasAdd_1&#10;17" class="edge-path" d="M499.646484375,383L499.646484375,386.6666666666667C499.646484375,390.3333333333333,499.646484375,397.6666666666667,465.9637044270833,406.65342193593534C432.2809244791667,415.6401772052041,364.9153645833333,426.2803544104083,331.2325846354167,431.6004430130103L297.5498046875,436.92053161561233" style="stroke: rgb(0, 0, 0); stroke-width: 1px; fill: none; marker-end: url(&quot;#arrowhead-vee&quot;);"/><path id="edge-model_1/lambda/Square;model_1/lambda/sub&#10;18" class="edge-path" d="M287.5498046875,450L287.5498046875,453.6666666666667C287.5498046875,457.3333333333333,287.5498046875,464.6666666666667,287.5498046875,472C287.5498046875,479.3333333333333,287.5498046875,486.6666666666667,287.5498046875,490.3333333333333L287.5498046875,494" style="stroke: rgb(0, 0, 0); stroke-width: 1px; fill: none; marker-end: url(&quot;#arrowhead-vee&quot;);"/><path id="edge-model_1/lambda/Sum&#10;19" class="edge-path" d="M287.5498046875,551L287.5498046875,554.6666666666666C287.5498046875,558.3333333333334,287.5498046875,565.6666666666666,287.5498046875,573C287.5498046875,580.3333333333334,287.5498046875,587.6666666666666,287.5498046875,591.3333333333334L287.5498046875,595" style="stroke: rgb(0, 0, 0); stroke-width: 1px; fill: none; marker-end: url(&quot;#arrowhead-vee&quot;);"/><path id="edge-model_1/lambda/Maximum&#10;20" class="edge-path" d="M287.5498046875,638L287.5498046875,641.6666666666666C287.5498046875,645.3333333333334,287.5498046875,652.6666666666666,287.5498046875,660C287.5498046875,667.3333333333334,287.5498046875,674.6666666666666,287.5498046875,678.3333333333334L287.5498046875,682" style="stroke: rgb(0, 0, 0); stroke-width: 1px; fill: none; marker-end: url(&quot;#arrowhead-vee&quot;);"/><path id="edge-model_1/lambda/clip_by_value/Minimum&#10;21" class="edge-path" d="M287.5498046875,725L287.5498046875,728.6666666666666C287.5498046875,732.3333333333334,287.5498046875,739.6666666666666,287.5498046875,747C287.5498046875,754.3333333333334,287.5498046875,761.6666666666666,287.5498046875,765.3333333333334L287.5498046875,769" style="stroke: rgb(0, 0, 0); stroke-width: 1px; fill: none; marker-end: url(&quot;#arrowhead-vee&quot;);"/><path id="edge-model_1/lambda/clip_by_value;model_1/lambda/Const&#10;22" class="edge-path" d="M287.5498046875,792L287.5498046875,795.6666666666666C287.5498046875,799.3333333333334,287.5498046875,806.6666666666666,287.5498046875,814C287.5498046875,821.3333333333334,287.5498046875,828.6666666666666,287.5498046875,832.3333333333334L287.5498046875,836" style="stroke: rgb(0, 0, 0); stroke-width: 1px; fill: none; marker-end: url(&quot;#arrowhead-vee&quot;);"/><path id="edge-model_1/lambda/Sqrt&#10;23" class="edge-path" d="M287.5498046875,859L287.5498046875,862.6666666666666C287.5498046875,866.3333333333334,287.5498046875,873.6666666666666,287.5498046875,881C287.5498046875,888.3333333333334,287.5498046875,895.6666666666666,287.5498046875,899.3333333333334L287.5498046875,903" style="stroke: rgb(0, 0, 0); stroke-width: 1px; fill: none; marker-end: url(&quot;#arrowhead-vee&quot;);"/><path id="edge-model_1/dense_2/MatMul;model_1/dense_2/BiasAdd&#10;24" class="edge-path" d="M287.5498046875,960L287.5498046875,963.6666666666666C287.5498046875,967.3333333333334,287.5498046875,974.6666666666666,287.5498046875,982C287.5498046875,989.3333333333334,287.5498046875,996.6666666666666,287.5498046875,1000.3333333333334L287.5498046875,1004" style="stroke: rgb(0, 0, 0); stroke-width: 1px; fill: none; marker-end: url(&quot;#arrowhead-vee&quot;);"/><path id="edge-Identity&#10;25" class="edge-path" d="M287.5498046875,1027L287.5498046875,1030.6666666666667C287.5498046875,1034.3333333333333,287.5498046875,1041.6666666666667,287.5498046875,1049C287.5498046875,1056.3333333333333,287.5498046875,1063.6666666666667,287.5498046875,1067.3333333333333L287.5498046875,1071" style="stroke: rgb(0, 0, 0); stroke-width: 1px; fill: none; marker-end: url(&quot;#arrowhead-vee&quot;);"/></g><g id="edge-labels" class="edge-labels"><text class="edge-label" id="edge-label-edge-input_1&#10;0" transform="translate(80.453125,48)" style="opacity: 1; font-family: -apple-system, BlinkMacSystemFont, &quot;Segoe WPC&quot;, &quot;Segoe UI&quot;, Ubuntu, &quot;Droid Sans&quot;, sans-serif, &quot;PingFang SC&quot;; font-size: 10px;"><tspan xml:space="preserve" dy="1em" x="1">input_1</tspan></text><text class="edge-label" id="edge-label-edge-input_2&#10;1" transform="translate(504.646484375,48)" style="opacity: 1; font-family: -apple-system, BlinkMacSystemFont, &quot;Segoe WPC&quot;, &quot;Segoe UI&quot;, Ubuntu, &quot;Droid Sans&quot;, sans-serif, &quot;PingFang SC&quot;; font-size: 10px;"><tspan xml:space="preserve" dy="1em" x="1">input_2</tspan></text><text class="edge-label" id="edge-label-edge-model_1/model/flatten/Reshape&#10;12" transform="translate(80.453125,145)" style="opacity: 1; font-family: -apple-system, BlinkMacSystemFont, &quot;Segoe WPC&quot;, &quot;Segoe UI&quot;, Ubuntu, &quot;Droid Sans&quot;, sans-serif, &quot;PingFang SC&quot;; font-size: 10px;"><tspan xml:space="preserve" dy="1em" x="1">model_1/model/flatten/Reshape</tspan></text><text class="edge-label" id="edge-label-edge-model_1/model/dense/MatMul;model_1/model/dense/Relu;model_1/model/dense/BiasAdd&#10;13" transform="translate(80.453125,283)" style="opacity: 1; font-family: -apple-system, BlinkMacSystemFont, &quot;Segoe WPC&quot;, &quot;Segoe UI&quot;, Ubuntu, &quot;Droid Sans&quot;, sans-serif, &quot;PingFang SC&quot;; font-size: 10px;"><tspan xml:space="preserve" dy="1em" x="1">model_1/model/dense/MatMul;model_1/model/dense/Relu;model_1/model/dense/BiasAdd</tspan></text><text class="edge-label" id="edge-label-edge-model_1/model/dense_1/MatMul;model_1/model/dense_1/BiasAdd&#10;14" transform="translate(80.453125,398)" style="opacity: 1; font-family: -apple-system, BlinkMacSystemFont, &quot;Segoe WPC&quot;, &quot;Segoe UI&quot;, Ubuntu, &quot;Droid Sans&quot;, sans-serif, &quot;PingFang SC&quot;; font-size: 10px;"><tspan xml:space="preserve" dy="1em" x="1">model_1/model/dense_1/MatMul;model_1/model/dense_1/BiasAdd</tspan></text><text class="edge-label" id="edge-label-edge-model_1/model/flatten/Reshape_1&#10;15" transform="translate(504.646484375,145)" style="opacity: 1; font-family: -apple-system, BlinkMacSystemFont, &quot;Segoe WPC&quot;, &quot;Segoe UI&quot;, Ubuntu, &quot;Droid Sans&quot;, sans-serif, &quot;PingFang SC&quot;; font-size: 10px;"><tspan xml:space="preserve" dy="1em" x="1">model_1/model/flatten/Reshape_1</tspan></text><text class="edge-label" id="edge-label-edge-model_1/model/dense/MatMul_1;model_1/model/dense/Relu_1;model_1/model/dense/BiasAdd_1&#10;16" transform="translate(504.646484375,283)" style="opacity: 1; font-family: -apple-system, BlinkMacSystemFont, &quot;Segoe WPC&quot;, &quot;Segoe UI&quot;, Ubuntu, &quot;Droid Sans&quot;, sans-serif, &quot;PingFang SC&quot;; font-size: 10px;"><tspan xml:space="preserve" dy="1em" x="1">model_1/model/dense/MatMul_1;model_1/model/dense/Relu_1;model_1/model/dense/BiasAdd_1</tspan></text><text class="edge-label" id="edge-label-edge-model_1/model/dense_1/MatMul_1;model_1/model/dense_1/BiasAdd_1&#10;17" transform="translate(504.646484375,398)" style="opacity: 1; font-family: -apple-system, BlinkMacSystemFont, &quot;Segoe WPC&quot;, &quot;Segoe UI&quot;, Ubuntu, &quot;Droid Sans&quot;, sans-serif, &quot;PingFang SC&quot;; font-size: 10px;"><tspan xml:space="preserve" dy="1em" x="1">model_1/model/dense_1/MatMul_1;model_1/model/dense_1/BiasAdd_1</tspan></text><text class="edge-label" id="edge-label-edge-model_1/lambda/Square;model_1/lambda/sub&#10;18" transform="translate(292.5498046875,465)" style="opacity: 1; font-family: -apple-system, BlinkMacSystemFont, &quot;Segoe WPC&quot;, &quot;Segoe UI&quot;, Ubuntu, &quot;Droid Sans&quot;, sans-serif, &quot;PingFang SC&quot;; font-size: 10px;"><tspan xml:space="preserve" dy="1em" x="1">model_1/lambda/Square;model_1/lambda/sub</tspan></text><text class="edge-label" id="edge-label-edge-model_1/lambda/Sum&#10;19" transform="translate(292.5498046875,566)" style="opacity: 1; font-family: -apple-system, BlinkMacSystemFont, &quot;Segoe WPC&quot;, &quot;Segoe UI&quot;, Ubuntu, &quot;Droid Sans&quot;, sans-serif, &quot;PingFang SC&quot;; font-size: 10px;"><tspan xml:space="preserve" dy="1em" x="1">model_1/lambda/Sum</tspan></text><text class="edge-label" id="edge-label-edge-model_1/lambda/Maximum&#10;20" transform="translate(292.5498046875,653)" style="opacity: 1; font-family: -apple-system, BlinkMacSystemFont, &quot;Segoe WPC&quot;, &quot;Segoe UI&quot;, Ubuntu, &quot;Droid Sans&quot;, sans-serif, &quot;PingFang SC&quot;; font-size: 10px;"><tspan xml:space="preserve" dy="1em" x="1">model_1/lambda/Maximum</tspan></text><text class="edge-label" id="edge-label-edge-model_1/lambda/clip_by_value/Minimum&#10;21" transform="translate(292.5498046875,740)" style="opacity: 1; font-family: -apple-system, BlinkMacSystemFont, &quot;Segoe WPC&quot;, &quot;Segoe UI&quot;, Ubuntu, &quot;Droid Sans&quot;, sans-serif, &quot;PingFang SC&quot;; font-size: 10px;"><tspan xml:space="preserve" dy="1em" x="1">model_1/lambda/clip_by_value/Minimum</tspan></text><text class="edge-label" id="edge-label-edge-model_1/lambda/clip_by_value;model_1/lambda/Const&#10;22" transform="translate(292.5498046875,807)" style="opacity: 1; font-family: -apple-system, BlinkMacSystemFont, &quot;Segoe WPC&quot;, &quot;Segoe UI&quot;, Ubuntu, &quot;Droid Sans&quot;, sans-serif, &quot;PingFang SC&quot;; font-size: 10px;"><tspan xml:space="preserve" dy="1em" x="1">model_1/lambda/clip_by_value;model_1/lambda/Const</tspan></text><text class="edge-label" id="edge-label-edge-model_1/lambda/Sqrt&#10;23" transform="translate(292.5498046875,874)" style="opacity: 1; font-family: -apple-system, BlinkMacSystemFont, &quot;Segoe WPC&quot;, &quot;Segoe UI&quot;, Ubuntu, &quot;Droid Sans&quot;, sans-serif, &quot;PingFang SC&quot;; font-size: 10px;"><tspan xml:space="preserve" dy="1em" x="1">model_1/lambda/Sqrt</tspan></text><text class="edge-label" id="edge-label-edge-model_1/dense_2/MatMul;model_1/dense_2/BiasAdd&#10;24" transform="translate(292.5498046875,975)" style="opacity: 1; font-family: -apple-system, BlinkMacSystemFont, &quot;Segoe WPC&quot;, &quot;Segoe UI&quot;, Ubuntu, &quot;Droid Sans&quot;, sans-serif, &quot;PingFang SC&quot;; font-size: 10px;"><tspan xml:space="preserve" dy="1em" x="1">model_1/dense_2/MatMul;model_1/dense_2/BiasAdd</tspan></text><text class="edge-label" id="edge-label-edge-Identity&#10;25" transform="translate(292.5498046875,1042)" style="opacity: 1; font-family: -apple-system, BlinkMacSystemFont, &quot;Segoe WPC&quot;, &quot;Segoe UI&quot;, Ubuntu, &quot;Droid Sans&quot;, sans-serif, &quot;PingFang SC&quot;; font-size: 10px;"><tspan xml:space="preserve" dy="1em" x="1">Identity</tspan></text></g><g id="nodes" class="nodes"><g id="input-name-input_1&#10;0" class="node graph-input" transform="translate(46.044677734375,0)" style="opacity: 1;"><g class="node-item graph-item-input" transform="translate(0,0)"><path d="M5,0h48.81689453125a5,5 0 0 1 5,5v13a5,5 0 0 1 -5,5h-48.81689453125a5,5 0 0 1 -5,-5v-13a5,5 0 0 1 5,-5z" style="stroke: rgb(0, 0, 0); fill: rgb(238, 238, 238); stroke-width: 0;"/><text x="6" y="16" style="font-family: -apple-system, BlinkMacSystemFont, &quot;Segoe WPC&quot;, &quot;Segoe UI&quot;, Ubuntu, &quot;Droid Sans&quot;, sans-serif, &quot;PingFang SC&quot;; font-size: 11px; text-rendering: geometricprecision;">input_1
0</text><title>float32[1,42]</title></g><path class="node border" d="M5,0h48.81689453125a5,5 0 0 1 5,5v13a5,5 0 0 1 -5,5h-48.81689453125a5,5 0 0 1 -5,-5v-13a5,5 0 0 1 5,-5z" style="stroke: rgb(51, 51, 51); fill: none; stroke-width: 1px;"/></g><g id="input-name-input_2&#10;1" class="node graph-input" transform="translate(470.271484375,0)" style="opacity: 1;"><g class="node-item graph-item-input" transform="translate(0,0)"><path d="M5,0h48.75a5,5 0 0 1 5,5v13a5,5 0 0 1 -5,5h-48.75a5,5 0 0 1 -5,-5v-13a5,5 0 0 1 5,-5z" style="stroke: rgb(0, 0, 0); fill: rgb(238, 238, 238); stroke-width: 0;"/><text x="6" y="16" style="font-family: -apple-system, BlinkMacSystemFont, &quot;Segoe WPC&quot;, &quot;Segoe UI&quot;, Ubuntu, &quot;Droid Sans&quot;, sans-serif, &quot;PingFang SC&quot;; font-size: 11px; text-rendering: geometricprecision;">input_2
1</text><title>float32[1,42]</title></g><path class="node border" d="M5,0h48.75a5,5 0 0 1 5,5v13a5,5 0 0 1 -5,5h-48.75a5,5 0 0 1 -5,-5v-13a5,5 0 0 1 5,-5z" style="stroke: rgb(51, 51, 51); fill: none; stroke-width: 1px;"/></g><g id="node-id-28" class="node graph-node" transform="translate(37.953125,87)" style="opacity: 1;"><g class="node-item node-item-type node-item-type-shape" transform="translate(0,0)"><path d="M5,0h65a5,5 0 0 1 5,5v18a0,0 0 0 1 0,0h-75a0,0 0 0 1 0,0v-18a5,5 0 0 1 5,-5z" style="stroke: rgb(0, 0, 0); fill: rgb(108, 79, 71); stroke-width: 0;"/><text x="6" y="16" style="font-family: -apple-system, BlinkMacSystemFont, &quot;Segoe WPC&quot;, &quot;Segoe UI&quot;, Ubuntu, &quot;Droid Sans&quot;, sans-serif, &quot;PingFang SC&quot;; font-size: 11px; text-rendering: geometricprecision; fill: rgb(255, 255, 255);">0</text><title>Reshape</title></g><g class="node-attribute" transform="translate(0,23)"><path d="M0,0h75a0,0 0 0 1 0,0v15a5,5 0 0 1 -5,5h-65a5,5 0 0 1 -5,-5v-15a0,0 0 0 1 0,0z" style="stroke: rgb(0, 0, 0); fill: rgb(255, 255, 255); stroke-width: 0;"/><text id="initializer-model_1/model/flatten/Const_1&#10;8" xml:space="preserve" x="6" y="14" style="font-family: -apple-system, BlinkMacSystemFont, &quot;Segoe WPC&quot;, &quot;Segoe UI&quot;, Ubuntu, &quot;Droid Sans&quot;, sans-serif, &quot;PingFang SC&quot;; font-size: 9px; font-weight: normal; text-rendering: geometricprecision;"><title>int32[2]</title><tspan style="font-weight: bold;">shape</tspan><tspan>〈2〉</tspan></text><line class="node" x1="0" x2="75" y1="0" y2="0" style="stroke: rgb(51, 51, 51); fill: none; stroke-width: 1px;"/></g><path class="node border" d="M5,0h65a5,5 0 0 1 5,5v33a5,5 0 0 1 -5,5h-65a5,5 0 0 1 -5,-5v-33a5,5 0 0 1 5,-5z" style="stroke: rgb(51, 51, 51); fill: none; stroke-width: 1px;"/></g><g id="node-id-29" class="node graph-node" transform="translate(0,174)" style="opacity: 1;"><g class="node-item node-item-type node-item-type-layer" transform="translate(0,0)"><path d="M5,0h140.90625a5,5 0 0 1 5,5v18a0,0 0 0 1 0,0h-150.90625a0,0 0 0 1 0,0v-18a5,5 0 0 1 5,-5z" style="stroke: rgb(0, 0, 0); fill: rgb(51, 85, 136); stroke-width: 0;"/><text x="6" y="16" style="font-family: -apple-system, BlinkMacSystemFont, &quot;Segoe WPC&quot;, &quot;Segoe UI&quot;, Ubuntu, &quot;Droid Sans&quot;, sans-serif, &quot;PingFang SC&quot;; font-size: 11px; text-rendering: geometricprecision; fill: rgb(255, 255, 255);">1</text><title>FullyConnected</title></g><g class="node-attribute" transform="translate(0,23)"><path d="M0,0h150.90625a0,0 0 0 1 0,0v48a0,0 0 0 1 0,0h-150.90625a0,0 0 0 1 0,0v-48a0,0 0 0 1 0,0z" style="stroke: rgb(0, 0, 0); fill: rgb(255, 255, 255); stroke-width: 0;"/><text id="initializer-model_1/model/dense/MatMul_1&#10;10" xml:space="preserve" x="6" y="14" style="font-family: -apple-system, BlinkMacSystemFont, &quot;Segoe WPC&quot;, &quot;Segoe UI&quot;, Ubuntu, &quot;Droid Sans&quot;, sans-serif, &quot;PingFang SC&quot;; font-size: 9px; font-weight: normal; text-rendering: geometricprecision;"><title>int8[128,42]</title><tspan style="font-weight: bold;">weights</tspan><tspan>〈128×42〉</tspan></text><text id="initializer-model_1/model/dense/BiasAdd/ReadVariableOp/resource&#10;6" xml:space="preserve" x="6" y="28" style="font-family: -apple-system, BlinkMacSystemFont, &quot;Segoe WPC&quot;, &quot;Segoe UI&quot;, Ubuntu, &quot;Droid Sans&quot;, sans-serif, &quot;PingFang SC&quot;; font-size: 9px; font-weight: normal; text-rendering: geometricprecision;"><title>float32[128]</title><tspan style="font-weight: bold;">bias</tspan><tspan>〈128〉</tspan></text><text xml:space="preserve" x="6" y="42" style="font-family: -apple-system, BlinkMacSystemFont, &quot;Segoe WPC&quot;, &quot;Segoe UI&quot;, Ubuntu, &quot;Droid Sans&quot;, sans-serif, &quot;PingFang SC&quot;; font-size: 9px; font-weight: normal; text-rendering: geometricprecision;"><title>boolean</title><tspan>asymmetric_quantize_inputs</tspan><tspan> = true</tspan></text><line class="node" x1="0" x2="150.90625" y1="0" y2="0" style="stroke: rgb(51, 51, 51); fill: none; stroke-width: 1px;"/></g><g class="node-item node-item-type node-item-type-activation" transform="translate(0,71)"><path d="M0,0h150.90625a0,0 0 0 1 0,0v18a5,5 0 0 1 -5,5h-140.90625a5,5 0 0 1 -5,-5v-18a0,0 0 0 1 0,0z" style="stroke: rgb(0, 0, 0); fill: rgb(112, 41, 33); stroke-width: 0;"/><text x="6" y="16" style="font-family: -apple-system, BlinkMacSystemFont, &quot;Segoe WPC&quot;, &quot;Segoe UI&quot;, Ubuntu, &quot;Droid Sans&quot;, sans-serif, &quot;PingFang SC&quot;; font-size: 11px; text-rendering: geometricprecision; fill: rgb(255, 255, 255);">Relu</text></g><line class="node" x1="0" x2="150.90625" y1="71" y2="71" style="stroke: rgb(51, 51, 51); fill: none; stroke-width: 1px;"/><path class="node border" d="M5,0h140.90625a5,5 0 0 1 5,5v84a5,5 0 0 1 -5,5h-140.90625a5,5 0 0 1 -5,-5v-84a5,5 0 0 1 5,-5z" style="stroke: rgb(51, 51, 51); fill: none; stroke-width: 1px;"/></g><g id="node-id-30" class="node graph-node" transform="translate(0,312)" style="opacity: 1;"><g class="node-item node-item-type node-item-type-layer" transform="translate(0,0)"><path d="M5,0h140.90625a5,5 0 0 1 5,5v18a0,0 0 0 1 0,0h-150.90625a0,0 0 0 1 0,0v-18a5,5 0 0 1 5,-5z" style="stroke: rgb(0, 0, 0); fill: rgb(51, 85, 136); stroke-width: 0;"/><text x="6" y="16" style="font-family: -apple-system, BlinkMacSystemFont, &quot;Segoe WPC&quot;, &quot;Segoe UI&quot;, Ubuntu, &quot;Droid Sans&quot;, sans-serif, &quot;PingFang SC&quot;; font-size: 11px; text-rendering: geometricprecision; fill: rgb(255, 255, 255);">2</text><title>FullyConnected</title></g><g class="node-attribute" transform="translate(0,23)"><path d="M0,0h150.90625a0,0 0 0 1 0,0v43a5,5 0 0 1 -5,5h-140.90625a5,5 0 0 1 -5,-5v-43a0,0 0 0 1 0,0z" style="stroke: rgb(0, 0, 0); fill: rgb(255, 255, 255); stroke-width: 0;"/><text id="initializer-model_1/model/dense_1/MatMul_1&#10;11" xml:space="preserve" x="6" y="14" style="font-family: -apple-system, BlinkMacSystemFont, &quot;Segoe WPC&quot;, &quot;Segoe UI&quot;, Ubuntu, &quot;Droid Sans&quot;, sans-serif, &quot;PingFang SC&quot;; font-size: 9px; font-weight: normal; text-rendering: geometricprecision;"><title>int8[256,128]</title><tspan style="font-weight: bold;">weights</tspan><tspan>〈256×128〉</tspan></text><text id="initializer-model_1/model/dense_1/BiasAdd/ReadVariableOp/resource&#10;7" xml:space="preserve" x="6" y="28" style="font-family: -apple-system, BlinkMacSystemFont, &quot;Segoe WPC&quot;, &quot;Segoe UI&quot;, Ubuntu, &quot;Droid Sans&quot;, sans-serif, &quot;PingFang SC&quot;; font-size: 9px; font-weight: normal; text-rendering: geometricprecision;"><title>float32[256]</title><tspan style="font-weight: bold;">bias</tspan><tspan>〈256〉</tspan></text><text xml:space="preserve" x="6" y="42" style="font-family: -apple-system, BlinkMacSystemFont, &quot;Segoe WPC&quot;, &quot;Segoe UI&quot;, Ubuntu, &quot;Droid Sans&quot;, sans-serif, &quot;PingFang SC&quot;; font-size: 9px; font-weight: normal; text-rendering: geometricprecision;"><title>boolean</title><tspan>asymmetric_quantize_inputs</tspan><tspan> = true</tspan></text><line class="node" x1="0" x2="150.90625" y1="0" y2="0" style="stroke: rgb(51, 51, 51); fill: none; stroke-width: 1px;"/></g><path class="node border" d="M5,0h140.90625a5,5 0 0 1 5,5v61a5,5 0 0 1 -5,5h-140.90625a5,5 0 0 1 -5,-5v-61a5,5 0 0 1 5,-5z" style="stroke: rgb(51, 51, 51); fill: none; stroke-width: 1px;"/></g><g id="node-id-31" class="node graph-node" transform="translate(462.146484375,87)" style="opacity: 1;"><g class="node-item node-item-type node-item-type-shape" transform="translate(0,0)"><path d="M5,0h65a5,5 0 0 1 5,5v18a0,0 0 0 1 0,0h-75a0,0 0 0 1 0,0v-18a5,5 0 0 1 5,-5z" style="stroke: rgb(0, 0, 0); fill: rgb(108, 79, 71); stroke-width: 0;"/><text x="6" y="16" style="font-family: -apple-system, BlinkMacSystemFont, &quot;Segoe WPC&quot;, &quot;Segoe UI&quot;, Ubuntu, &quot;Droid Sans&quot;, sans-serif, &quot;PingFang SC&quot;; font-size: 11px; text-rendering: geometricprecision; fill: rgb(255, 255, 255);">3</text><title>Reshape</title></g><g class="node-attribute" transform="translate(0,23)"><path d="M0,0h75a0,0 0 0 1 0,0v15a5,5 0 0 1 -5,5h-65a5,5 0 0 1 -5,-5v-15a0,0 0 0 1 0,0z" style="stroke: rgb(0, 0, 0); fill: rgb(255, 255, 255); stroke-width: 0;"/><text id="initializer-model_1/model/flatten/Const_1&#10;8" xml:space="preserve" x="6" y="14" style="font-family: -apple-system, BlinkMacSystemFont, &quot;Segoe WPC&quot;, &quot;Segoe UI&quot;, Ubuntu, &quot;Droid Sans&quot;, sans-serif, &quot;PingFang SC&quot;; font-size: 9px; font-weight: normal; text-rendering: geometricprecision;"><title>int32[2]</title><tspan style="font-weight: bold;">shape</tspan><tspan>〈2〉</tspan></text><line class="node" x1="0" x2="75" y1="0" y2="0" style="stroke: rgb(51, 51, 51); fill: none; stroke-width: 1px;"/></g><path class="node border" d="M5,0h65a5,5 0 0 1 5,5v33a5,5 0 0 1 -5,5h-65a5,5 0 0 1 -5,-5v-33a5,5 0 0 1 5,-5z" style="stroke: rgb(51, 51, 51); fill: none; stroke-width: 1px;"/></g><g id="node-id-32" class="node graph-node" transform="translate(424.193359375,174)" style="opacity: 1;"><g class="node-item node-item-type node-item-type-layer" transform="translate(0,0)"><path d="M5,0h140.90625a5,5 0 0 1 5,5v18a0,0 0 0 1 0,0h-150.90625a0,0 0 0 1 0,0v-18a5,5 0 0 1 5,-5z" style="stroke: rgb(0, 0, 0); fill: rgb(51, 85, 136); stroke-width: 0;"/><text x="6" y="16" style="font-family: -apple-system, BlinkMacSystemFont, &quot;Segoe WPC&quot;, &quot;Segoe UI&quot;, Ubuntu, &quot;Droid Sans&quot;, sans-serif, &quot;PingFang SC&quot;; font-size: 11px; text-rendering: geometricprecision; fill: rgb(255, 255, 255);">4</text><title>FullyConnected</title></g><g class="node-attribute" transform="translate(0,23)"><path d="M0,0h150.90625a0,0 0 0 1 0,0v48a0,0 0 0 1 0,0h-150.90625a0,0 0 0 1 0,0v-48a0,0 0 0 1 0,0z" style="stroke: rgb(0, 0, 0); fill: rgb(255, 255, 255); stroke-width: 0;"/><text id="initializer-model_1/model/dense/MatMul_1&#10;10" xml:space="preserve" x="6" y="14" style="font-family: -apple-system, BlinkMacSystemFont, &quot;Segoe WPC&quot;, &quot;Segoe UI&quot;, Ubuntu, &quot;Droid Sans&quot;, sans-serif, &quot;PingFang SC&quot;; font-size: 9px; font-weight: normal; text-rendering: geometricprecision;"><title>int8[128,42]</title><tspan style="font-weight: bold;">weights</tspan><tspan>〈128×42〉</tspan></text><text id="initializer-model_1/model/dense/BiasAdd/ReadVariableOp/resource&#10;6" xml:space="preserve" x="6" y="28" style="font-family: -apple-system, BlinkMacSystemFont, &quot;Segoe WPC&quot;, &quot;Segoe UI&quot;, Ubuntu, &quot;Droid Sans&quot;, sans-serif, &quot;PingFang SC&quot;; font-size: 9px; font-weight: normal; text-rendering: geometricprecision;"><title>float32[128]</title><tspan style="font-weight: bold;">bias</tspan><tspan>〈128〉</tspan></text><text xml:space="preserve" x="6" y="42" style="font-family: -apple-system, BlinkMacSystemFont, &quot;Segoe WPC&quot;, &quot;Segoe UI&quot;, Ubuntu, &quot;Droid Sans&quot;, sans-serif, &quot;PingFang SC&quot;; font-size: 9px; font-weight: normal; text-rendering: geometricprecision;"><title>boolean</title><tspan>asymmetric_quantize_inputs</tspan><tspan> = true</tspan></text><line class="node" x1="0" x2="150.90625" y1="0" y2="0" style="stroke: rgb(51, 51, 51); fill: none; stroke-width: 1px;"/></g><g class="node-item node-item-type node-item-type-activation" transform="translate(0,71)"><path d="M0,0h150.90625a0,0 0 0 1 0,0v18a5,5 0 0 1 -5,5h-140.90625a5,5 0 0 1 -5,-5v-18a0,0 0 0 1 0,0z" style="stroke: rgb(0, 0, 0); fill: rgb(112, 41, 33); stroke-width: 0;"/><text x="6" y="16" style="font-family: -apple-system, BlinkMacSystemFont, &quot;Segoe WPC&quot;, &quot;Segoe UI&quot;, Ubuntu, &quot;Droid Sans&quot;, sans-serif, &quot;PingFang SC&quot;; font-size: 11px; text-rendering: geometricprecision; fill: rgb(255, 255, 255);">Relu</text></g><line class="node" x1="0" x2="150.90625" y1="71" y2="71" style="stroke: rgb(51, 51, 51); fill: none; stroke-width: 1px;"/><path class="node border" d="M5,0h140.90625a5,5 0 0 1 5,5v84a5,5 0 0 1 -5,5h-140.90625a5,5 0 0 1 -5,-5v-84a5,5 0 0 1 5,-5z" style="stroke: rgb(51, 51, 51); fill: none; stroke-width: 1px;"/></g><g id="node-id-33" class="node graph-node" transform="translate(424.193359375,312)" style="opacity: 1;"><g class="node-item node-item-type node-item-type-layer" transform="translate(0,0)"><path d="M5,0h140.90625a5,5 0 0 1 5,5v18a0,0 0 0 1 0,0h-150.90625a0,0 0 0 1 0,0v-18a5,5 0 0 1 5,-5z" style="stroke: rgb(0, 0, 0); fill: rgb(51, 85, 136); stroke-width: 0;"/><text x="6" y="16" style="font-family: -apple-system, BlinkMacSystemFont, &quot;Segoe WPC&quot;, &quot;Segoe UI&quot;, Ubuntu, &quot;Droid Sans&quot;, sans-serif, &quot;PingFang SC&quot;; font-size: 11px; text-rendering: geometricprecision; fill: rgb(255, 255, 255);">5</text><title>FullyConnected</title></g><g class="node-attribute" transform="translate(0,23)"><path d="M0,0h150.90625a0,0 0 0 1 0,0v43a5,5 0 0 1 -5,5h-140.90625a5,5 0 0 1 -5,-5v-43a0,0 0 0 1 0,0z" style="stroke: rgb(0, 0, 0); fill: rgb(255, 255, 255); stroke-width: 0;"/><text id="initializer-model_1/model/dense_1/MatMul_1&#10;11" xml:space="preserve" x="6" y="14" style="font-family: -apple-system, BlinkMacSystemFont, &quot;Segoe WPC&quot;, &quot;Segoe UI&quot;, Ubuntu, &quot;Droid Sans&quot;, sans-serif, &quot;PingFang SC&quot;; font-size: 9px; font-weight: normal; text-rendering: geometricprecision;"><title>int8[256,128]</title><tspan style="font-weight: bold;">weights</tspan><tspan>〈256×128〉</tspan></text><text id="initializer-model_1/model/dense_1/BiasAdd/ReadVariableOp/resource&#10;7" xml:space="preserve" x="6" y="28" style="font-family: -apple-system, BlinkMacSystemFont, &quot;Segoe WPC&quot;, &quot;Segoe UI&quot;, Ubuntu, &quot;Droid Sans&quot;, sans-serif, &quot;PingFang SC&quot;; font-size: 9px; font-weight: normal; text-rendering: geometricprecision;"><title>float32[256]</title><tspan style="font-weight: bold;">bias</tspan><tspan>〈256〉</tspan></text><text xml:space="preserve" x="6" y="42" style="font-family: -apple-system, BlinkMacSystemFont, &quot;Segoe WPC&quot;, &quot;Segoe UI&quot;, Ubuntu, &quot;Droid Sans&quot;, sans-serif, &quot;PingFang SC&quot;; font-size: 9px; font-weight: normal; text-rendering: geometricprecision;"><title>boolean</title><tspan>asymmetric_quantize_inputs</tspan><tspan> = true</tspan></text><line class="node" x1="0" x2="150.90625" y1="0" y2="0" style="stroke: rgb(51, 51, 51); fill: none; stroke-width: 1px;"/></g><path class="node border" d="M5,0h140.90625a5,5 0 0 1 5,5v61a5,5 0 0 1 -5,5h-140.90625a5,5 0 0 1 -5,-5v-61a5,5 0 0 1 5,-5z" style="stroke: rgb(51, 51, 51); fill: none; stroke-width: 1px;"/></g><g id="node-id-34" class="node graph-node" transform="translate(277.5498046875,427)" style="opacity: 1;"><g class="node-item node-item-type" transform="translate(0,0)"><path d="M5,0h10a5,5 0 0 1 5,5v13a5,5 0 0 1 -5,5h-10a5,5 0 0 1 -5,-5v-13a5,5 0 0 1 5,-5z" style="stroke: rgb(0, 0, 0); fill: rgb(0, 0, 0); stroke-width: 0;"/><text x="6" y="16" style="font-family: -apple-system, BlinkMacSystemFont, &quot;Segoe WPC&quot;, &quot;Segoe UI&quot;, Ubuntu, &quot;Droid Sans&quot;, sans-serif, &quot;PingFang SC&quot;; font-size: 11px; text-rendering: geometricprecision; fill: rgb(255, 255, 255);">6</text><title>SquaredDifference</title></g><path class="node border" d="M5,0h10a5,5 0 0 1 5,5v13a5,5 0 0 1 -5,5h-10a5,5 0 0 1 -5,-5v-13a5,5 0 0 1 5,-5z" style="stroke: rgb(51, 51, 51); fill: none; stroke-width: 1px;"/></g><g id="node-id-35" class="node graph-node" transform="translate(246.8857421875,494)" style="opacity: 1;"><g class="node-item node-item-type" transform="translate(0,0)"><path d="M5,0h71.328125a5,5 0 0 1 5,5v18a0,0 0 0 1 0,0h-81.328125a0,0 0 0 1 0,0v-18a5,5 0 0 1 5,-5z" style="stroke: rgb(0, 0, 0); fill: rgb(0, 0, 0); stroke-width: 0;"/><text x="6" y="16" style="font-family: -apple-system, BlinkMacSystemFont, &quot;Segoe WPC&quot;, &quot;Segoe UI&quot;, Ubuntu, &quot;Droid Sans&quot;, sans-serif, &quot;PingFang SC&quot;; font-size: 11px; text-rendering: geometricprecision; fill: rgb(255, 255, 255);">7</text><title>Sum</title></g><g class="node-attribute" transform="translate(0,23)"><path d="M0,0h81.328125a0,0 0 0 1 0,0v29a5,5 0 0 1 -5,5h-71.328125a5,5 0 0 1 -5,-5v-29a0,0 0 0 1 0,0z" style="stroke: rgb(0, 0, 0); fill: rgb(255, 255, 255); stroke-width: 0;"/><text id="initializer-model_1/lambda/Sum/reduction_indices&#10;5" xml:space="preserve" x="6" y="14" style="font-family: -apple-system, BlinkMacSystemFont, &quot;Segoe WPC&quot;, &quot;Segoe UI&quot;, Ubuntu, &quot;Droid Sans&quot;, sans-serif, &quot;PingFang SC&quot;; font-size: 9px; font-weight: normal; text-rendering: geometricprecision;"><title>int32</title><tspan>axis</tspan><tspan> = 1</tspan></text><text xml:space="preserve" x="6" y="28" style="font-family: -apple-system, BlinkMacSystemFont, &quot;Segoe WPC&quot;, &quot;Segoe UI&quot;, Ubuntu, &quot;Droid Sans&quot;, sans-serif, &quot;PingFang SC&quot;; font-size: 9px; font-weight: normal; text-rendering: geometricprecision;"><title>boolean</title><tspan>keep_dims</tspan><tspan> = true</tspan></text><line class="node" x1="0" x2="81.328125" y1="0" y2="0" style="stroke: rgb(51, 51, 51); fill: none; stroke-width: 1px;"/></g><path class="node border" d="M5,0h71.328125a5,5 0 0 1 5,5v47a5,5 0 0 1 -5,5h-71.328125a5,5 0 0 1 -5,-5v-47a5,5 0 0 1 5,-5z" style="stroke: rgb(51, 51, 51); fill: none; stroke-width: 1px;"/></g><g id="node-id-36" class="node graph-node" transform="translate(236.917236328125,595)" style="opacity: 1;"><g class="node-item node-item-type" transform="translate(0,0)"><path d="M5,0h91.26513671875a5,5 0 0 1 5,5v18a0,0 0 0 1 0,0h-101.26513671875a0,0 0 0 1 0,0v-18a5,5 0 0 1 5,-5z" style="stroke: rgb(0, 0, 0); fill: rgb(0, 0, 0); stroke-width: 0;"/><text x="6" y="16" style="font-family: -apple-system, BlinkMacSystemFont, &quot;Segoe WPC&quot;, &quot;Segoe UI&quot;, Ubuntu, &quot;Droid Sans&quot;, sans-serif, &quot;PingFang SC&quot;; font-size: 11px; text-rendering: geometricprecision; fill: rgb(255, 255, 255);">8</text><title>Maximum</title></g><g class="node-attribute" transform="translate(0,23)"><path d="M0,0h101.26513671875a0,0 0 0 1 0,0v15a5,5 0 0 1 -5,5h-91.26513671875a5,5 0 0 1 -5,-5v-15a0,0 0 0 1 0,0z" style="stroke: rgb(0, 0, 0); fill: rgb(255, 255, 255); stroke-width: 0;"/><text id="initializer-model_1/lambda/Maximum/y&#10;4" xml:space="preserve" x="6" y="14" style="font-family: -apple-system, BlinkMacSystemFont, &quot;Segoe WPC&quot;, &quot;Segoe UI&quot;, Ubuntu, &quot;Droid Sans&quot;, sans-serif, &quot;PingFang SC&quot;; font-size: 9px; font-weight: normal; text-rendering: geometricprecision;"><title>float32</title><tspan>input2</tspan><tspan> = 1.00000001…</tspan></text><line class="node" x1="0" x2="101.26513671875" y1="0" y2="0" style="stroke: rgb(51, 51, 51); fill: none; stroke-width: 1px;"/></g><path class="node border" d="M5,0h91.26513671875a5,5 0 0 1 5,5v33a5,5 0 0 1 -5,5h-91.26513671875a5,5 0 0 1 -5,-5v-33a5,5 0 0 1 5,-5z" style="stroke: rgb(51, 51, 51); fill: none; stroke-width: 1px;"/></g><g id="node-id-37" class="node graph-node" transform="translate(250.0498046875,682)" style="opacity: 1;"><g class="node-item node-item-type" transform="translate(0,0)"><path d="M5,0h65a5,5 0 0 1 5,5v18a0,0 0 0 1 0,0h-75a0,0 0 0 1 0,0v-18a5,5 0 0 1 5,-5z" style="stroke: rgb(0, 0, 0); fill: rgb(0, 0, 0); stroke-width: 0;"/><text x="6" y="16" style="font-family: -apple-system, BlinkMacSystemFont, &quot;Segoe WPC&quot;, &quot;Segoe UI&quot;, Ubuntu, &quot;Droid Sans&quot;, sans-serif, &quot;PingFang SC&quot;; font-size: 11px; text-rendering: geometricprecision; fill: rgb(255, 255, 255);">9</text><title>Minimum</title></g><g class="node-attribute" transform="translate(0,23)"><path d="M0,0h75a0,0 0 0 1 0,0v15a5,5 0 0 1 -5,5h-65a5,5 0 0 1 -5,-5v-15a0,0 0 0 1 0,0z" style="stroke: rgb(0, 0, 0); fill: rgb(255, 255, 255); stroke-width: 0;"/><text id="initializer-model_1/lambda/Const_1&#10;3" xml:space="preserve" x="6" y="14" style="font-family: -apple-system, BlinkMacSystemFont, &quot;Segoe WPC&quot;, &quot;Segoe UI&quot;, Ubuntu, &quot;Droid Sans&quot;, sans-serif, &quot;PingFang SC&quot;; font-size: 9px; font-weight: normal; text-rendering: geometricprecision;"><title>float32</title><tspan>input2</tspan><tspan> = null</tspan></text><line class="node" x1="0" x2="75" y1="0" y2="0" style="stroke: rgb(51, 51, 51); fill: none; stroke-width: 1px;"/></g><path class="node border" d="M5,0h65a5,5 0 0 1 5,5v33a5,5 0 0 1 -5,5h-65a5,5 0 0 1 -5,-5v-33a5,5 0 0 1 5,-5z" style="stroke: rgb(51, 51, 51); fill: none; stroke-width: 1px;"/></g><g id="node-id-38" class="node graph-node" transform="translate(274.5849609375,769)" style="opacity: 1;"><g class="node-item node-item-type node-item-type-activation" transform="translate(0,0)"><path d="M5,0h15.9296875a5,5 0 0 1 5,5v13a5,5 0 0 1 -5,5h-15.9296875a5,5 0 0 1 -5,-5v-13a5,5 0 0 1 5,-5z" style="stroke: rgb(0, 0, 0); fill: rgb(112, 41, 33); stroke-width: 0;"/><text x="6" y="16" style="font-family: -apple-system, BlinkMacSystemFont, &quot;Segoe WPC&quot;, &quot;Segoe UI&quot;, Ubuntu, &quot;Droid Sans&quot;, sans-serif, &quot;PingFang SC&quot;; font-size: 11px; text-rendering: geometricprecision; fill: rgb(255, 255, 255);">10</text><title>Relu</title></g><path class="node border" d="M5,0h15.9296875a5,5 0 0 1 5,5v13a5,5 0 0 1 -5,5h-15.9296875a5,5 0 0 1 -5,-5v-13a5,5 0 0 1 5,-5z" style="stroke: rgb(51, 51, 51); fill: none; stroke-width: 1px;"/></g><g id="node-id-39" class="node graph-node" transform="translate(274.6201171875,836)" style="opacity: 1;"><g class="node-item node-item-type" transform="translate(0,0)"><path d="M5,0h15.859375a5,5 0 0 1 5,5v13a5,5 0 0 1 -5,5h-15.859375a5,5 0 0 1 -5,-5v-13a5,5 0 0 1 5,-5z" style="stroke: rgb(0, 0, 0); fill: rgb(0, 0, 0); stroke-width: 0;"/><text x="6" y="16" style="font-family: -apple-system, BlinkMacSystemFont, &quot;Segoe WPC&quot;, &quot;Segoe UI&quot;, Ubuntu, &quot;Droid Sans&quot;, sans-serif, &quot;PingFang SC&quot;; font-size: 11px; text-rendering: geometricprecision; fill: rgb(255, 255, 255);">11</text><title>Sqrt</title></g><path class="node border" d="M5,0h15.859375a5,5 0 0 1 5,5v13a5,5 0 0 1 -5,5h-15.859375a5,5 0 0 1 -5,-5v-13a5,5 0 0 1 5,-5z" style="stroke: rgb(51, 51, 51); fill: none; stroke-width: 1px;"/></g><g id="node-id-40" class="node graph-node" transform="translate(247.6044921875,903)" style="opacity: 1;"><g class="node-item node-item-type node-item-type-layer" transform="translate(0,0)"><path d="M5,0h69.890625a5,5 0 0 1 5,5v18a0,0 0 0 1 0,0h-79.890625a0,0 0 0 1 0,0v-18a5,5 0 0 1 5,-5z" style="stroke: rgb(0, 0, 0); fill: rgb(51, 85, 136); stroke-width: 0;"/><text x="6" y="16" style="font-family: -apple-system, BlinkMacSystemFont, &quot;Segoe WPC&quot;, &quot;Segoe UI&quot;, Ubuntu, &quot;Droid Sans&quot;, sans-serif, &quot;PingFang SC&quot;; font-size: 11px; text-rendering: geometricprecision; fill: rgb(255, 255, 255);">12</text><title>FullyConnected</title></g><g class="node-attribute" transform="translate(0,23)"><path d="M0,0h79.890625a0,0 0 0 1 0,0v29a5,5 0 0 1 -5,5h-69.890625a5,5 0 0 1 -5,-5v-29a0,0 0 0 1 0,0z" style="stroke: rgb(0, 0, 0); fill: rgb(255, 255, 255); stroke-width: 0;"/><text id="initializer-model_1/dense_2/MatMul&#10;9" xml:space="preserve" x="6" y="14" style="font-family: -apple-system, BlinkMacSystemFont, &quot;Segoe WPC&quot;, &quot;Segoe UI&quot;, Ubuntu, &quot;Droid Sans&quot;, sans-serif, &quot;PingFang SC&quot;; font-size: 9px; font-weight: normal; text-rendering: geometricprecision;"><title>float32[1,1]</title><tspan style="font-weight: bold;">weights</tspan><tspan>〈1×1〉</tspan></text><text id="initializer-model_1/dense_2/BiasAdd/ReadVariableOp/resource&#10;2" xml:space="preserve" x="6" y="28" style="font-family: -apple-system, BlinkMacSystemFont, &quot;Segoe WPC&quot;, &quot;Segoe UI&quot;, Ubuntu, &quot;Droid Sans&quot;, sans-serif, &quot;PingFang SC&quot;; font-size: 9px; font-weight: normal; text-rendering: geometricprecision;"><title>float32[1]</title><tspan style="font-weight: bold;">bias</tspan><tspan>〈1〉</tspan></text><line class="node" x1="0" x2="79.890625" y1="0" y2="0" style="stroke: rgb(51, 51, 51); fill: none; stroke-width: 1px;"/></g><path class="node border" d="M5,0h69.890625a5,5 0 0 1 5,5v47a5,5 0 0 1 -5,5h-69.890625a5,5 0 0 1 -5,-5v-47a5,5 0 0 1 5,-5z" style="stroke: rgb(51, 51, 51); fill: none; stroke-width: 1px;"/></g><g id="node-id-41" class="node graph-node" transform="translate(274.5849609375,1004)" style="opacity: 1;"><g class="node-item node-item-type" transform="translate(0,0)"><path d="M5,0h15.9296875a5,5 0 0 1 5,5v13a5,5 0 0 1 -5,5h-15.9296875a5,5 0 0 1 -5,-5v-13a5,5 0 0 1 5,-5z" style="stroke: rgb(0, 0, 0); fill: rgb(0, 0, 0); stroke-width: 0;"/><text x="6" y="16" style="font-family: -apple-system, BlinkMacSystemFont, &quot;Segoe WPC&quot;, &quot;Segoe UI&quot;, Ubuntu, &quot;Droid Sans&quot;, sans-serif, &quot;PingFang SC&quot;; font-size: 11px; text-rendering: geometricprecision; fill: rgb(255, 255, 255);">13</text><title>Logistic</title></g><path class="node border" d="M5,0h15.9296875a5,5 0 0 1 5,5v13a5,5 0 0 1 -5,5h-15.9296875a5,5 0 0 1 -5,-5v-13a5,5 0 0 1 5,-5z" style="stroke: rgb(51, 51, 51); fill: none; stroke-width: 1px;"/></g><g class="node" transform="translate(254.666259765625,1071)" style="opacity: 1;"><g class="node-item graph-item-output" transform="translate(0,0)"><path d="M5,0h55.76708984375a5,5 0 0 1 5,5v13a5,5 0 0 1 -5,5h-55.76708984375a5,5 0 0 1 -5,-5v-13a5,5 0 0 1 5,-5z" style="stroke: rgb(0, 0, 0); fill: rgb(238, 238, 238); stroke-width: 0;"/><text x="6" y="16" style="font-family: -apple-system, BlinkMacSystemFont, &quot;Segoe WPC&quot;, &quot;Segoe UI&quot;, Ubuntu, &quot;Droid Sans&quot;, sans-serif, &quot;PingFang SC&quot;; font-size: 11px; text-rendering: geometricprecision;">Identity
25</text><title>float32[1,1]</title></g><path class="node border" d="M5,0h55.76708984375a5,5 0 0 1 5,5v13a5,5 0 0 1 -5,5h-55.76708984375a5,5 0 0 1 -5,-5v-13a5,5 0 0 1 5,-5z" style="stroke: rgb(51, 51, 51); fill: none; stroke-width: 1px;"/></g></g></g></svg>